<svg xmlns="http://www.w3.org/2000/svg" viewBox="0 0 18.47 18.47"><defs><style>.cls-1{fill:#009ee2;}.cls-2{fill:#fff;}</style></defs><g id="Layer_2" data-name="Layer 2"><g id="Layer_1-2" data-name="Layer 1"><path class="cls-1" d="M18.47,9.23A9.24,9.24,0,1,0,7.79,18.36V11.9H5.45V9.23H7.79v-2a3.26,3.26,0,0,1,3.49-3.59,14.3,14.3,0,0,1,2.07.18V6.06H12.18a1.33,1.33,0,0,0-1.5,1.44V9.23h2.56l-.41,2.67H10.68v6.46A9.25,9.25,0,0,0,18.47,9.23Z"/><path class="cls-2" d="M12.83,11.9l.41-2.67H10.68V7.5a1.33,1.33,0,0,1,1.5-1.44h1.17V3.79a14.3,14.3,0,0,0-2.07-.18A3.26,3.26,0,0,0,7.79,7.2v2H5.45V11.9H7.79v6.46a9.55,9.55,0,0,0,2.89,0V11.9Z"/></g></g></svg>