<?xml version="1.0" encoding="UTF-8" standalone="no"?>
<!DOCTYPE svg PUBLIC "-//W3C//DTD SVG 1.1//EN" "http://www.w3.org/Graphics/SVG/1.1/DTD/svg11.dtd">
<svg width="100%" height="100%" viewBox="0 0 500 500" version="1.1" xmlns="http://www.w3.org/2000/svg" xmlns:xlink="http://www.w3.org/1999/xlink" xml:space="preserve" xmlns:serif="http://www.serif.com/" style="fill-rule:evenodd;clip-rule:evenodd;stroke-linejoin:round;stroke-miterlimit:2;">
    <g>
        <g transform="matrix(0.299001,0,0,0.299001,-78.4022,-49.6901)">
            <path d="M1409.92,1741.2C1313.87,1741.2 1200.15,1708.89 1081.03,1647.75C956.841,1584.01 832.271,1491.39 720.791,1379.91C573.064,1232.18 459.688,1062.71 401.552,902.71C345.816,749.322 345.304,618.428 400.111,534.139C411.378,516.803 427.297,502.4 446.151,492.48L569.464,427.613C574.91,424.75 580.783,423.296 586.911,423.296C598.161,423.296 608.721,428.262 615.885,436.92L807.706,668.774C820.134,683.791 819.109,705.505 805.328,719.286L731.358,793.256C707.121,817.493 700.587,854.616 715.099,885.634C740.479,939.881 801.683,1049.51 926.434,1174.26C1051.19,1299 1160.82,1360.22 1215.07,1385.61C1225.99,1390.71 1237.61,1393.3 1249.64,1393.3C1271.48,1393.3 1292.01,1384.79 1307.45,1369.35L1381.42,1295.37C1388.51,1288.27 1397.95,1284.37 1407.99,1284.37C1416.84,1284.37 1425.11,1287.35 1431.92,1292.99L1663.79,1484.81C1677.4,1496.08 1681.31,1515.6 1673.08,1531.24L1608.22,1654.55C1598.3,1673.39 1583.9,1689.32 1566.55,1700.6C1525.12,1727.54 1472.42,1741.2 1409.92,1741.2Z" style="fill:white;fill-rule:nonzero;"/>
        </g>
        <g transform="matrix(0.299001,0,0,0.299001,-78.4022,-49.6901)">
            <path d="M1812.16,998.307C1796.44,998.307 1783.69,985.563 1783.69,969.841C1783.69,881.681 1766.43,796.171 1732.39,715.689C1699.51,637.939 1652.42,568.106 1592.45,508.131C1532.47,448.155 1462.64,401.07 1384.89,368.185C1304.41,334.143 1218.9,316.883 1130.74,316.883C1115.01,316.883 1102.27,304.139 1102.27,288.418C1102.27,272.697 1115.01,259.953 1130.74,259.953C1226.56,259.953 1319.53,278.726 1407.07,315.751C1491.6,351.506 1567.52,402.688 1632.7,467.874C1697.89,533.059 1749.07,608.975 1784.83,693.512C1821.85,781.049 1840.63,874.02 1840.63,969.841C1840.63,985.563 1827.88,998.307 1812.16,998.307Z" style="fill:white;fill-rule:nonzero;"/>
        </g>
        <g transform="matrix(0.299001,0,0,0.299001,-78.4022,-49.6901)">
            <path d="M1590.47,998.307C1574.74,998.307 1562,985.563 1562,969.841C1562,854.645 1517.14,746.346 1435.69,664.891C1354.23,583.435 1245.93,538.576 1130.74,538.576C1115.01,538.576 1102.27,525.832 1102.27,510.111C1102.27,494.39 1115.01,481.645 1130.74,481.645C1261.14,481.645 1383.73,532.427 1475.94,624.635C1568.15,716.842 1618.93,839.439 1618.93,969.841C1618.93,985.563 1606.19,998.307 1590.47,998.307Z" style="fill:white;fill-rule:nonzero;"/>
        </g>
        <g transform="matrix(0.299001,0,0,0.299001,-78.4022,-49.6901)">
            <path d="M1368.77,998.307C1353.05,998.307 1340.31,985.563 1340.31,969.841C1340.31,854.284 1246.29,760.269 1130.74,760.269C1115.01,760.269 1102.27,747.525 1102.27,731.804C1102.27,716.082 1115.01,703.338 1130.74,703.338C1277.69,703.338 1397.24,822.891 1397.24,969.841C1397.24,985.563 1384.49,998.307 1368.77,998.307Z" style="fill:white;fill-rule:nonzero;"/>
        </g>
    </g>
</svg>
