<?xml version="1.0" encoding="UTF-8" standalone="no"?>
<!DOCTYPE svg PUBLIC "-//W3C//DTD SVG 1.1//EN" "http://www.w3.org/Graphics/SVG/1.1/DTD/svg11.dtd">
<svg width="100%" height="100%" viewBox="0 0 500 500" version="1.1" xmlns="http://www.w3.org/2000/svg" xmlns:xlink="http://www.w3.org/1999/xlink" xml:space="preserve" xmlns:serif="http://www.serif.com/" style="fill-rule:evenodd;clip-rule:evenodd;stroke-linejoin:round;stroke-miterlimit:2;">
    <g transform="matrix(0.891054,0,0,0.891054,-1380.76,-673.405)">
        <path d="M1829.61,1063.05C1788.31,1063.05 1754.82,1029.56 1754.82,988.264C1754.82,946.964 1788.31,913.484 1829.61,913.484C1870.91,913.484 1904.39,946.964 1904.39,988.264C1904.39,1029.56 1870.91,1063.05 1829.61,1063.05ZM1962.38,855.944L1962.37,855.934C1925.71,819.274 1877.66,800.944 1829.61,800.944C1781.56,800.944 1733.49,819.284 1696.84,855.944C1629.81,922.964 1623.25,1029.43 1681.55,1104.17L1814.17,1274.24C1822.01,1284.28 1837.2,1284.28 1845.03,1274.24L1977.66,1104.17C2035.96,1029.43 2029.4,922.964 1962.38,855.944Z" style="fill:rgb(9,44,76);fill-rule:nonzero;"/>
    </g>
</svg>
