<svg xmlns="http://www.w3.org/2000/svg" viewBox="0 0 15.03 19.57"><defs><style>.cls-1{fill:#0d2b4b;}</style></defs><g id="Layer_2" data-name="Layer 2"><g id="Layer_1-2" data-name="Layer 1"><path class="cls-1" d="M7.45,5.41A2.12,2.12,0,0,0,6,6.09H6A2.11,2.11,0,0,0,7.51,9.63h.13a2.05,2.05,0,0,0,1.47-.73A2.13,2.13,0,0,0,9,6a2.06,2.06,0,0,0-1.53-.59Zm1,2.94a1.28,1.28,0,0,1-1.83.11,1.28,1.28,0,0,1-.07-1.81,1.22,1.22,0,0,1,.9-.4,1.27,1.27,0,0,1,.92.35,1.29,1.29,0,0,1,.08,1.75Z"/><path class="cls-1" d="M12.82,2.19A7.48,7.48,0,0,0,7.52,0h0A7.55,7.55,0,0,0,0,7.43a7.42,7.42,0,0,0,1.2,4.15l.35-.22-.34.24L6.6,19.1a1.13,1.13,0,0,0,1.83,0l5.37-7.48,0,0a7.5,7.5,0,0,0-1-9.38Zm.31,8.94L7.75,18.61a.29.29,0,0,1-.47,0L1.91,11.15v0A6.61,6.61,0,0,1,.84,7.44,6.7,6.7,0,0,1,7.49.84h0A6.67,6.67,0,0,1,14.2,7.51a6.71,6.71,0,0,1-1.06,3.62Z"/></g></g></svg>