<svg xmlns="http://www.w3.org/2000/svg" xmlns:xlink="http://www.w3.org/1999/xlink" xmlns:serif="http://www.serif.com/" width="100%" height="100%" viewBox="0 0 500 500" version="1.1" xml:space="preserve" style="fill-rule:evenodd;clip-rule:evenodd;stroke-linejoin:round;stroke-miterlimit:2;">
    <g transform="matrix(0.690744,0,0,0.811811,-553.419,-94.5982)">
        <path d="M872.956,618.289C915.704,581.394 1001.03,509.182 1094.14,438.354C1096.97,436.202 1100.88,436.195 1103.73,438.327C1121.36,451.552 1139.19,464.65 1156.99,477.386C1158.39,478.386 1160.03,478.887 1161.67,478.887C1163.31,478.887 1164.95,478.386 1166.35,477.386C1184.16,464.65 1201.99,451.552 1219.62,438.327C1222.46,436.195 1226.38,436.202 1229.21,438.354C1322.32,509.182 1407.64,581.394 1450.39,618.289C1455.78,622.937 1452.82,631.775 1445.72,632.243C1395.75,635.54 1298.03,640.487 1161.67,640.487C1025.31,640.487 927.597,635.54 877.624,632.243C870.526,631.775 867.571,622.937 872.956,618.289ZM858.115,609.855C853.107,614.189 845.31,610.866 844.971,604.252C843.087,567.474 840.478,502.482 840.478,424.642C840.478,346.799 843.088,281.805 844.971,245.028C845.31,238.414 853.107,235.091 858.115,239.424C898.374,274.255 983.285,346.394 1077.32,418.324C1081.48,421.505 1081.48,427.772 1077.32,430.952C983.434,502.739 898.412,574.985 858.115,609.855ZM1450.39,230.993C1398.2,276.03 1282.54,373.707 1166.33,457.597C1163.55,459.602 1159.8,459.602 1157.02,457.597C1040.81,373.707 925.15,276.03 872.959,230.993C867.573,226.345 870.53,217.508 877.629,217.04C927.604,213.743 1025.32,208.796 1161.67,208.796C1298.03,208.796 1395.74,213.743 1445.72,217.04C1452.82,217.508 1455.77,226.345 1450.39,230.993ZM1246.03,418.324C1340.06,346.394 1424.97,274.255 1465.23,239.424C1470.24,235.091 1478.04,238.414 1478.38,245.028C1480.26,281.805 1482.87,346.799 1482.87,424.642C1482.87,502.482 1480.26,567.474 1478.38,604.252C1478.04,610.866 1470.24,614.189 1465.23,609.855C1424.94,574.985 1339.91,502.739 1246.03,430.952C1241.87,427.772 1241.87,421.505 1246.03,418.324Z" style="fill:white;fill-rule:nonzero;"/>
    </g>
</svg>