<svg xmlns="http://www.w3.org/2000/svg" viewBox="0 0 16.43 16.46"><defs><style>.cls-1{fill:none;stroke:#fff;stroke-miterlimit:10;stroke-width:0.67px;}</style></defs><g id="Layer_2" data-name="Layer 2"><g id="Layer_1-2" data-name="Layer 1"><path class="cls-1" d="M8.36.34A7.7,7.7,0,0,0,1.6,11.8L.47,16l4.21-1.12A7.73,7.73,0,1,0,8.36.34Zm3.69,10.1a1.9,1.9,0,0,1-1.41,1,3,3,0,0,1-1.54-.24,6.52,6.52,0,0,1-1.33-.64,7.28,7.28,0,0,1-2.12-2,5.57,5.57,0,0,1-.49-.74A4,4,0,0,1,4.68,6.8a2.05,2.05,0,0,1-.06-.49A1.92,1.92,0,0,1,5.3,4.77a.84.84,0,0,1,1-.15c.34.18.5.65.65,1a1.7,1.7,0,0,1,.21.87,1.63,1.63,0,0,1-.46.74.32.32,0,0,0,0,.43,5,5,0,0,0,2.5,2.14.28.28,0,0,0,.36-.08c.19-.23.37-.67.66-.8a1.32,1.32,0,0,1,1.11.25c.29.18.79.4.87.76A1,1,0,0,1,12.05,10.44Z"/></g></g></svg>