<svg
  width="100%"
  height="100%"
  viewBox="0 0 1000 1000"
  version="1.1"
  xmlns="http://www.w3.org/2000/svg"
  xmlns:xlink="http://www.w3.org/1999/xlink"
  xml:space="preserve"
  style="fill-rule:evenodd;clip-rule:evenodd;stroke-linejoin:round;stroke-miterlimit:2;"
>
  <g transform="matrix(1.81269,0,0,1.81269,143.394,754.144)">
    <path
      d="M0,-9.37C-9.17,-9.37 -15.298,-7.976 -19.609,-6.761L-20.817,-6.421L-20.817,2.952L-4.301,2.952L-4.301,19.376C-7.082,20.531 -15.265,23.691 -21.559,23.691C-21.636,23.691 -21.715,23.691 -21.792,23.688C-32.169,23.598 -37.11,19.322 -37.11,-4.742C-37.11,-26.529 -33.561,-33.17 -21.92,-33.17C-12.839,-33.17 -0.778,-32.274 3.764,-31.935C4.961,-31.846 5.703,-31.795 5.841,-31.795L7.497,-31.795L7.497,-42.553L6.151,-42.81C-2.748,-44.516 -15.244,-45.8 -22.912,-45.8C-47.275,-45.8 -50.558,-25.151 -50.558,-4.947C-50.558,8.65 -49.471,22.305 -41.559,30.079C-37.215,34.347 -31.299,36.43 -23.506,36.43C-23.23,36.43 -22.948,36.428 -22.667,36.422C-13.704,36.328 -7.4,33.717 -3.162,31.382L-1.052,35.895L9.137,35.895L9.137,-9.021L7.62,-9.147C4.915,-9.37 2.303,-9.37 0,-9.37"
      style="fill:white;fill-rule:nonzero;"></path>
  </g>
  <g transform="matrix(1.81269,0,0,1.81269,247.704,752.584)">
    <path
      d="M0,-7.34L-22.352,-7.34L-22.352,-31.461L0,-31.461C3.009,-31.461 8.042,-31.461 8.042,-18.919C8.042,-7.34 4.493,-7.34 0,-7.34M21.595,-18.919C21.595,-39.724 10.094,-44.093 0.448,-44.093L-35.792,-44.093L-35.792,36.753L-22.352,36.753L-22.352,4.364L-5.335,5.651L10.672,36.753L25.537,36.753L8.738,4.646C13.361,3.311 21.595,-0.945 21.595,-18.919"
      style="fill:white;fill-rule:nonzero;"></path>
  </g>
  <g transform="matrix(1.81269,0,0,1.81269,365.827,694.808)">
    <path
      d="M0,56.307C-14.978,56.307 -19.822,54.17 -19.822,28.737C-19.822,-0.013 -13.197,-0.013 0,-0.013C13.051,-0.013 19.604,-0.013 19.604,28.737C19.604,53.932 14.228,56.307 0,56.307M0,-12.745C-18.197,-12.745 -33.259,-9.624 -33.259,28.737C-33.259,66.159 -19.474,69.052 0,69.052C21.914,69.052 33.044,62.818 33.044,28.737C33.044,-9.691 18.724,-12.745 0,-12.745"
      style="fill:white;fill-rule:nonzero;"></path>
  </g>
  <g transform="matrix(1.81269,0,0,1.81269,539.827,738.064)">
    <path
      d="M0,9.211C0,32.558 -8.218,32.558 -17.734,32.558C-29.974,32.558 -36.117,32.558 -36.117,9.211L-36.117,-36.081L-49.568,-36.081L-49.568,9.211C-49.568,23.949 -46.904,33.775 -41.426,39.253C-35.621,45.059 -27.63,45.292 -19.791,45.292L-17.734,45.292C-4.529,45.292 13.553,45.292 13.553,9.211L13.553,-36.081L0,-36.081L0,9.211Z"
      style="fill:white;fill-rule:nonzero;"></path>
  </g>
  <g transform="matrix(1.81269,0,0,1.81269,651.153,751.237)">
    <path
      d="M0,-5.85L-21.372,-5.85L-21.372,-30.716L0,-30.716C2.717,-30.716 8.372,-30.716 8.584,-18.818C8.584,-6.841 4.524,-5.85 0,-5.85M0.33,-43.348L-34.81,-43.348L-34.81,37.498L-21.372,37.498L-21.372,4.904C-15.938,5.552 -2.459,6.715 0.307,6.779C5.46,6.849 11.324,6.321 15.82,1.883C20.072,-2.319 22.14,-9.088 22.14,-18.818C22.14,-35.095 14.802,-43.348 0.33,-43.348"
      style="fill:white;fill-rule:nonzero;"></path>
  </g>
  <g transform="matrix(1.81269,0,0,1.81269,121.986,539.205)">
    <path
      d="M0,44.657L-14.819,44.657L-14.819,0L0,0C5.404,0 8.628,2.547 8.628,22.548C8.628,38.134 6.558,44.657 0,44.657M2.308,-18.123L-37.11,-18.123L-37.11,62.78L2.308,62.78C21.495,62.78 30.921,50.955 30.921,22.658C30.921,-0.218 25.172,-18.123 2.308,-18.123"
      style="fill:white;fill-rule:nonzero;"></path>
  </g>
  <g transform="matrix(1.81269,0,0,1.81269,-225.074,-65.717)">
    <rect
      x="235.086"
      y="315.593"
      width="22.293"
      height="80.902"
      style="fill:white;"></rect>
  </g>
  <g transform="matrix(1.81269,0,0,1.81269,338.734,506.352)">
    <path
      d="M0,80.903L0,19.225L21.838,19.225L21.838,0L-43.443,0L-43.443,19.225L-22.293,19.225L-22.293,80.903L0,80.903Z"
      style="fill:white;fill-rule:nonzero;"></path>
  </g>
  <g transform="matrix(1.81269,0,0,1.81269,429.835,653.298)">
    <path
      d="M0,-234.961L-34.839,-237.954L11,-252.001L11.473,-239.044C6.939,-238.133 2.975,-236.692 0,-234.961M17.764,-253.21L64.124,-253.981L28.899,-239.535C25.744,-240.062 22.111,-240.226 18.248,-239.953L17.764,-253.21ZM207.41,-81.553C205.01,-80.982 202.939,-79.595 201.268,-77.602L176.285,-110.771C177.895,-113.656 178.785,-117.106 178.911,-120.823L216.14,-113.685C216.595,-112.765 217.077,-111.842 217.594,-110.92C219.157,-108.13 220.871,-105.578 222.653,-103.323L216.174,-80.035C213.334,-81.645 210.318,-82.244 207.41,-81.553M73.785,-236.916C73.29,-235.673 73.348,-234.271 73.869,-232.794L39.944,-233.283C39.646,-234.253 39.009,-235.143 38.084,-235.937L80.446,-253.309L86.185,-241.086C79.909,-241.61 75.094,-240.196 73.785,-236.916M152.406,-211.161C152.313,-211.01 152.231,-210.853 152.155,-210.693L116.084,-224.74C115.673,-225.586 115.119,-226.45 114.437,-227.319L151.1,-230.57L161.748,-214.064C157.308,-214.498 153.885,-213.578 152.406,-211.161M180.228,-207.072C177.289,-208.895 174.333,-210.38 171.493,-211.515L167.261,-218.075L183.783,-204.684C182.652,-205.504 181.467,-206.303 180.228,-207.072M195.518,-192.263C194.04,-195.036 191.6,-198.029 188.419,-200.927L204.224,-188.117L195.518,-192.263ZM216.848,-140.527L191.033,-181.01C193.498,-181.327 195.369,-182.274 196.363,-183.897C196.429,-184.005 196.484,-184.119 196.542,-184.232L225.267,-170.551L225.66,-137.17C222.455,-139.575 219.371,-140.802 216.848,-140.527M84.954,-170.251L73.181,-142.78C70.001,-143.44 66.638,-143.437 63.278,-142.638C60.383,-141.95 57.751,-140.731 55.449,-139.115L26.013,-173.668C29.657,-176.149 32.419,-179.343 33.952,-182.824L70.772,-181.524C73.911,-176.641 79.838,-172.703 84.954,-170.251M75.663,-199.028L32.647,-224.031C34.225,-224.793 35.597,-225.63 36.722,-226.517L79.117,-225.904C82.23,-223.196 86.451,-220.625 91.355,-218.639C91.552,-218.56 91.749,-218.485 91.945,-218.408L91.521,-199.339C86.194,-200.562 80.222,-200.946 75.663,-199.028M91.027,-125.647C89.337,-132.203 85.059,-137.418 79.574,-140.423L91.295,-167.773C96.906,-166.04 103.947,-164.968 109.39,-166.71L137.135,-142.587C135.632,-138.778 135.205,-134.249 135.912,-129.542L91.027,-125.647ZM144.245,-151.034C142.968,-150.312 141.831,-149.419 140.829,-148.391L115.24,-170.637C115.881,-171.46 116.429,-172.404 116.861,-173.486C118.396,-177.327 117.717,-180.927 115.811,-184.138L162.962,-191.911C164.672,-190.55 166.538,-189.23 168.54,-187.988C169.11,-187.635 169.681,-187.298 170.252,-186.969L161.15,-150.774C155.415,-153.567 149.277,-153.877 144.245,-151.034M115.287,-217.74L153.146,-202.997C154.012,-201.323 155.234,-199.567 156.763,-197.795L110.462,-190.159C106.775,-193.23 102.323,-195.619 98.713,-197.082C98.571,-197.139 98.427,-197.196 98.281,-197.254L98.703,-216.302C106.06,-214.598 112.401,-215.108 115.287,-217.74M182.435,-181.835L211.8,-135.782C210.747,-132.222 211.209,-127 213.071,-121.197L178.278,-127.88C177.596,-131.131 176.377,-134.435 174.593,-137.618C172.553,-141.258 169.997,-144.348 167.163,-146.784L176.487,-183.865C178.541,-183.003 180.539,-182.327 182.435,-181.835M162.934,-61.954C160.864,-70.688 155.469,-77.598 148.808,-81.173L155.457,-103.963C160.563,-102.047 165.84,-102.11 170.261,-104.609C170.764,-104.893 171.241,-105.208 171.701,-105.542L197.786,-70.908C196.782,-67.621 196.373,-63.802 196.662,-59.75L163.332,-60.015C163.219,-60.66 163.088,-61.306 162.934,-61.954M232.208,-158.589L263.055,-99.794L242.737,-111.074C241.672,-114.679 240.051,-118.539 237.894,-122.389C236.246,-125.331 234.429,-128.006 232.541,-130.349L232.208,-158.589ZM107.368,-233.534C104.928,-235.136 102.114,-236.619 99.026,-237.869C97.487,-238.492 95.958,-239.024 94.456,-239.471L88.602,-251.947L136.219,-236.089L107.368,-233.534ZM35.301,-189.596C35.265,-190.476 35.148,-191.358 34.941,-192.234C33.133,-199.863 25.162,-204.809 15.653,-205.029L17.424,-220.098C17.717,-220.125 18.011,-220.152 18.306,-220.185C20.31,-220.405 22.241,-220.728 24.071,-221.138L70.2,-194.335C69.902,-193.827 69.633,-193.283 69.399,-192.697C68.815,-191.235 68.555,-189.807 68.557,-188.423L35.301,-189.596ZM39.993,-72.527L17.593,-169.766C18.339,-169.978 19.07,-170.215 19.782,-170.478L50.514,-134.412C46.305,-129.003 44.494,-121.758 46.212,-114.512C47.725,-108.127 51.684,-102.975 56.836,-99.829L47.821,-72.725C45.269,-73.04 42.637,-72.988 39.993,-72.527M70.494,-53.047C68.172,-61.524 62.042,-67.999 54.423,-71.031L63.118,-97.168C66.605,-96.269 70.345,-96.176 74.081,-97.064C77.453,-97.865 80.469,-99.383 83.02,-101.416L118.685,-69.608C117.241,-66.068 116.49,-62.091 116.57,-57.939L70.494,-53.047ZM133.843,-83.304C129.103,-82.178 125.106,-79.426 122.154,-75.642L87.661,-106.4C90.145,-110.015 91.611,-114.332 91.771,-118.87L137.664,-122.851C138.277,-121.226 139.025,-119.61 139.914,-118.024C142.422,-113.546 145.713,-109.901 149.34,-107.282L142.395,-83.475C139.599,-84.013 136.709,-83.986 133.843,-83.304M228.682,-61.068C227.354,-66.672 224.904,-71.534 221.876,-75.145L228.104,-97.536C230.29,-95.634 232.458,-94.243 234.471,-93.462L253.026,-49.006C252.448,-47.1 252.032,-44.935 251.798,-42.59L229.709,-52.515C229.706,-55.257 229.376,-58.141 228.682,-61.068M260,-57.274C259.069,-57.181 258.195,-56.82 257.386,-56.233L241.604,-94.051C243.474,-95.67 244.334,-98.656 244.235,-102.451L267.657,-89.447L262.931,-56.695C261.969,-57.163 260.986,-57.373 260,-57.274M272.857,-35.139C272.276,-40.877 270.799,-46.028 268.825,-49.92L270.792,-63.534L275.866,-14.142L272.336,-21.81C273.125,-25.663 273.351,-30.258 272.857,-35.139M284.017,-15.92C283.381,-16.025 283.163,-14.326 282.977,-11.448L276.746,-72.137C277.508,-73.969 276.793,-80.953 274.956,-89.563L274.739,-91.677C274.713,-91.899 274.659,-92.126 274.64,-92.137L274.18,-93.017C274.176,-93.033 274.172,-93.048 274.169,-93.064C271.454,-104.517 268.02,-113.508 266.498,-113.146C265.91,-113.007 265.695,-111.487 265.807,-109.02L240.15,-158.058C241.064,-157.505 241.719,-157.32 242.033,-157.581C243.328,-158.651 238.402,-166.802 231.034,-175.783C223.665,-184.763 216.644,-191.176 215.352,-190.106C214.983,-189.8 215.122,-188.917 215.678,-187.604L171.598,-223.331C173.607,-222.798 174.89,-222.733 175.155,-223.245C175.94,-224.761 167.497,-230.754 156.29,-236.627C145.091,-242.503 135.373,-246.036 134.59,-244.519C134.495,-244.334 134.538,-244.083 134.704,-243.774L84.152,-260.609C83.416,-261.158 82.443,-261.346 81.516,-261.089L15.469,-259.987C14.905,-260.148 14.319,-260.145 13.756,-259.972L-55.698,-238.691C-57.063,-238.265 -57.94,-236.93 -57.783,-235.529C-57.641,-234.101 -56.499,-232.977 -55.074,-232.854L-5.637,-228.604C-5.695,-228.224 -5.71,-227.842 -5.668,-227.462C-5.197,-223.207 1.545,-220.286 10.552,-219.908L8.723,-204.365C8.489,-204.315 8.256,-204.268 8.021,-204.212C-4.567,-201.22 -12.928,-191.004 -10.651,-181.398C-8.703,-173.179 0.4,-168.072 10.871,-168.637L33.472,-70.52C21.993,-65.309 15.432,-52.492 18.464,-39.701C21.906,-25.183 36.395,-16.197 50.828,-19.625C63.323,-22.596 71.678,-33.898 71.464,-46.3L117.429,-51.179C117.432,-51.166 117.434,-51.154 117.437,-51.141C120.94,-36.359 133.963,-26.802 146.529,-29.787C156.576,-32.177 163.287,-41.867 163.779,-53.212L197.78,-52.96C201.112,-40.001 210.444,-31.193 218.872,-33.196C223.846,-34.378 227.408,-39.069 228.912,-45.402L251.67,-35.179C251.712,-34.47 251.767,-33.754 251.841,-33.03C253.135,-20.224 258.892,-10.314 264.695,-10.895C266.214,-11.047 267.583,-11.908 268.757,-13.317L278.219,7.247C278.677,8.248 279.661,8.906 280.755,8.972C278.786,18.691 275.925,25.919 277.246,26.137C278.741,26.385 283.249,17.166 285.117,5.552C286.984,-6.06 285.511,-15.674 284.017,-15.92"
      style="fill:rgb(0,174,239);fill-rule:nonzero;"></path>
  </g>
  <g transform="matrix(1.81269,0,0,1.81269,260.085,374.975)">
    <path
      d="M0,-58.081C6.2,-63.946 4.682,-64.115 4.682,-64.115C-36.189,-40.73 -59.012,6.034 -59.012,6.034C-38.522,-26.74 -10.887,-47.778 0,-58.081"
      style="fill:rgb(0,174,239);fill-rule:nonzero;"></path>
  </g>
  <g transform="matrix(1.81269,0,0,1.81269,920.245,808.958)">
    <path
      d="M0,-33.47C-4.964,-17.804 -11.422,-8.996 -21.799,4.256C-21.799,4.256 -4.385,-12.26 2.037,-36.66C2.037,-36.66 1.351,-37.726 0,-33.47"
      style="fill:rgb(0,174,239);fill-rule:nonzero;"></path>
  </g>
</svg>
