<svg xmlns="http://www.w3.org/2000/svg" xmlns:xlink="http://www.w3.org/1999/xlink" viewBox="0 0 2391.07 3471.58"><defs><style>.cls-1{fill:none;}.cls-2{opacity:0.5;}.cls-3{clip-path:url(#clip-path);}.cls-4{opacity:0.2;}.cls-5{fill:#ddd;}.cls-6{fill:#efefef;}</style><clipPath id="clip-path" transform="translate(504.37 195.03)"><rect class="cls-1" width="1280.01" height="2603.13"/></clipPath></defs><g id="Layer_2" data-name="Layer 2"><g id="Layer_1-2" data-name="Layer 1"><g class="cls-2"><g class="cls-3"><g class="cls-4"><path class="cls-5" d="M819.47,488l.82.88L1049.8,777.7l-3,.6L636.2,776.06l-.6-1.54.26-.43Zm227,288.44L819.58,491.12,638,774.31Z" transform="translate(504.37 195.03)"/><path class="cls-5" d="M1069.08,342.74v1.75l-19.72,433-1.48.77-.38-.55L818.1,489.31l.93-.6ZM1047.61,775l19.61-428.88L940.41,420l-.66.66-.1-.28L820.78,489.81Z" transform="translate(504.37 195.03)"/><path class="cls-5" d="M1278.86,3.85l81.34,81.61,69.46,153.15-1.05.38L1066.12,346l1.2-2.08,129.49-208h0Zm79.75,82.49L1279.14,7,1197.9,137.5l-.05,2-.77-.76L1070.33,342.79l356.81-105.33Z" transform="translate(504.37 195.03)"/><path class="cls-5" d="M930,26.25l.1,1.54,18.63,196-1.37-.49-215.92-79ZM946.71,221,928.31,29.37,735.66,143.91Z" transform="translate(504.37 195.03)"/><path class="cls-5" d="M931.37,27.62l-1.64,1-196,116.4-1.7-.44-.06-.6L715.29-45.34l1.26.44ZM733.7,143,927.1,28.12,717.26-42.6Z" transform="translate(504.37 195.03)"/><path class="cls-5" d="M204.08,951l-1.64,1-391.58,233,1.09-2.41,130-329.85.88.28Zm-389.45,229.61,385-229.29L-57.08,855.15Z" transform="translate(504.37 195.03)"/><path class="cls-5" d="M707.89,370.07l-.1.77-71.1,406.64-1.09-3.34L445.31,223.44l2.19,1.26ZM636.14,770.19l69.73-399.14L448.6,227.33Z" transform="translate(504.37 195.03)"/><path class="cls-5" d="M140,1382.79l-2.9.17L-259,1413.47l.49-1.32,70.66-230.71,1,.6Zm-396.56,28.6,390.7-30-320.86-197.24Z" transform="translate(504.37 195.03)"/><path class="cls-5" d="M203.09,949.42l-.27,2-65,432.28-1.26-.88-325.69-200,1.32-.77Zm-66.6,431.18,64.09-427.67-386.16,229.88Z" transform="translate(504.37 195.03)"/><path class="cls-5" d="M1119.63-92.88l-1.53,1.1-189.41,121-.38-1.09-70.93-218.5,2.84,2.74ZM929.73,26.53l185.85-119L860.93-185.23Z" transform="translate(504.37 195.03)"/><path class="cls-5" d="M205.89,953.8-58.45,854.44l8.21-133.32,1.32-1.32h.76l.44.22ZM-56.53,853.4l254.37,95.31L-48.37,722Z" transform="translate(504.37 195.03)"/><path class="cls-5" d="M638.11,775.4,201,952.65l-.05-1.48,1.75-483,1-.93.88.6ZM202.77,949.75,634.22,774.86,204.63,470.25Z" transform="translate(504.37 195.03)"/><path class="cls-5" d="M949.83,222.13l-1.7,1L706.42,371.94l-.44-1L581.64,88.37h1.92ZM707.24,369.25,945.5,222.62,733.64,145.11l-1.75,1.1v-1.7L584.66,90.83Z" transform="translate(504.37 195.03)"/><path class="cls-5" d="M111.51,667.11l.61,1.48L204,954.46-48.76,721.67h-1.86l1.37-1.59Zm88.3,280.94L110.74,670.56-47.11,720.63Z" transform="translate(504.37 195.03)"/><path class="cls-5" d="M-186.13,1181.94l-71,231-.66.71-.76-.54-241.88-241.83,13-13.09.55.16Zm-72.14,228.84,69.79-227.09-298.19-23.44-11,11.06Z" transform="translate(504.37 195.03)"/><path class="cls-5" d="M138.63,1381l-.66,1.54L2.57,1672.93,1,1672.71l-260.83-261,1.92-.22ZM1.47,1670.52,135.5,1383l-391.36,30.18Z" transform="translate(504.37 195.03)"/><path class="cls-5" d="M638.06,773.37l-.93,2.2L470.89,1133.24l-.82-.66L199.92,950.9l1.59-.55ZM470.23,1130.5,634.39,776.82,203.81,951.45Z" transform="translate(504.37 195.03)"/><path class="cls-5" d="M1118.65-94.47l-.06,1.92-21,266-1.54-1.26L927.65,27.79ZM1096,169.76,1116.51-90.8,930.78,28Z" transform="translate(504.37 195.03)"/><path class="cls-5" d="M942.44,418.82,940.36,420,819.3,490.69l-.54-.5-114.53-121,2.79.49ZM819.75,488.33,937.4,419.64,709.59,372.15Z" transform="translate(504.37 195.03)"/><path class="cls-5" d="M706.31,368.7l1.26,1.26L820.68,489.37l-.39.6L636.2,776.88l-.6-3.18Zm112,120.89L707.51,372.65,638,770.74Z" transform="translate(504.37 195.03)"/><path class="cls-5" d="M1098.65,172l-1.58.55L947,223.55l-.16-1L928,25.65l1.76,1.48ZM948.41,221.2l146.52-49.91L930.33,30Z" transform="translate(504.37 195.03)"/><path class="cls-5" d="M1199.06,135.53l-1.43,2.25L1068.31,345.86l-.77-.71L946,222l1.48-.5ZM1068,342.79,1194.73,139,949.4,222.78Z" transform="translate(504.37 195.03)"/><path class="cls-5" d="M947,220.21l1.37,1.42,121.33,122.92L939,421l.11-1.81Zm119.69,124L948.41,224.59,941,417.51Z" transform="translate(504.37 195.03)"/><path class="cls-5" d="M948.74,220.7l-.06,1.75L941,420.08H939.7L704.39,371l2-1.26Zm-9.59,197.35,7.51-194L709.32,370.12Z" transform="translate(504.37 195.03)"/><path class="cls-5" d="M472.09,1131.76l-1,.82L135.83,1384.16l.44-2.24,64.91-432.34,1.1.82ZM138.41,1379.94l330.56-248L202.6,952.81Z" transform="translate(504.37 195.03)"/><path class="cls-5" d="M1209.41-65.6l70.76,70.82-.32.66-83,133.59-.66-1.91L1116.29-93.92l1.65.38Zm68.41,71.15-69.4-69.35-89.33-27.27L1197.25,135Z" transform="translate(504.37 195.03)"/><path class="cls-5" d="M1117-97l1.58,4.17,79.54,230.38-1,.71L1095.7,172.83l.1-1.37Zm78.81,233.89-77.61-224.9-20.37,258.32Z" transform="translate(504.37 195.03)"/><path class="cls-5" d="M1420.78,245.57a11.64,11.64,0,1,1,16.44-16.49,11.64,11.64,0,0,1-16.44,16.49Z" transform="translate(504.37 195.03)"/><path class="cls-5" d="M1059.38,354.41a11.62,11.62,0,1,1,16.38,0A11.32,11.32,0,0,1,1059.38,354.41Z" transform="translate(504.37 195.03)"/><path class="cls-5" d="M939.54,229.19A11.62,11.62,0,1,1,956,212.81a11.62,11.62,0,0,1-16.48,16.38Z" transform="translate(504.37 195.03)"/><path class="cls-5" d="M920.48,38.52a11.61,11.61,0,1,1,16.37-.05A11.55,11.55,0,0,1,920.48,38.52Z" transform="translate(504.37 195.03)"/><path class="cls-5" d="M1111.36-82.36a11.58,11.58,0,0,1,0-16.49,11.69,11.69,0,0,1,16.54.11,11.57,11.57,0,0,1-.16,16.32A11.53,11.53,0,0,1,1111.36-82.36Z" transform="translate(504.37 195.03)"/><path class="cls-5" d="M727.34,150.81a11.6,11.6,0,0,1,16.38-16.43,11.6,11.6,0,1,1-16.38,16.43Z" transform="translate(504.37 195.03)"/><path class="cls-5" d="M932.69,428.79a11.58,11.58,0,1,1,16.43.11A11.6,11.6,0,0,1,932.69,428.79Z" transform="translate(504.37 195.03)"/><path class="cls-5" d="M809.94,497.53a11.6,11.6,0,1,1,16.43-16.38,11.65,11.65,0,0,1-.06,16.32A11.48,11.48,0,0,1,809.94,497.53Z" transform="translate(504.37 195.03)"/><path class="cls-5" d="M699.57,379.05a11.62,11.62,0,1,1,16.32,0A11.56,11.56,0,0,1,699.57,379.05Z" transform="translate(504.37 195.03)"/><path class="cls-5" d="M439.89,233.74a11.6,11.6,0,1,1,16.37-16.44,11.6,11.6,0,0,1-16.37,16.44Z" transform="translate(504.37 195.03)"/><path class="cls-5" d="M575.07,96.58A11.6,11.6,0,0,1,591.5,80.21a11.36,11.36,0,0,1,0,16.43A11.51,11.51,0,0,1,575.07,96.58Z" transform="translate(504.37 195.03)"/><path class="cls-5" d="M709.43-36.25a9.56,9.56,0,0,1,.11-13.63,9.33,9.33,0,0,1,13.48,0,9.55,9.55,0,0,1,.16,13.69A9.7,9.7,0,0,1,709.43-36.25Z" transform="translate(504.37 195.03)"/><path class="cls-5" d="M854.14-178.44a9.64,9.64,0,0,1-.11-13.69,9.68,9.68,0,0,1,13.81,0,9.57,9.57,0,0,1-.12,13.64A9.46,9.46,0,0,1,854.14-178.44Z" transform="translate(504.37 195.03)"/><path class="cls-5" d="M195.86,475a9.67,9.67,0,1,1,13.65-13.7A9.67,9.67,0,1,1,195.86,475Z" transform="translate(504.37 195.03)"/><path class="cls-5" d="M104,674.61a9.66,9.66,0,1,1,13.64-13.69A9.66,9.66,0,1,1,104,674.61Z" transform="translate(504.37 195.03)"/><path class="cls-5" d="M-57.08,727.91a9.68,9.68,0,0,1-.06-13.69,9.65,9.65,0,0,1,13.75,0,9.66,9.66,0,0,1,0,13.75A9.63,9.63,0,0,1-57.08,727.91Z" transform="translate(504.37 195.03)"/><path class="cls-5" d="M-260.41,933.21a9.66,9.66,0,0,1-.1-13.75,9.64,9.64,0,0,1,13.74.1,9.59,9.59,0,0,1,.06,13.7A9.65,9.65,0,0,1-260.41,933.21Z" transform="translate(504.37 195.03)"/><path class="cls-5" d="M-63.93,862a9.71,9.71,0,0,1,0-13.75,9.66,9.66,0,0,1,13.75,0,9.65,9.65,0,0,1,0,13.7A9.75,9.75,0,0,1-63.93,862Z" transform="translate(504.37 195.03)"/><path class="cls-5" d="M627.21,783.51a11.63,11.63,0,0,1,.11-16.38,11.62,11.62,0,0,1,16.44,16.43A11.64,11.64,0,0,1,627.21,783.51Z" transform="translate(504.37 195.03)"/><path class="cls-5" d="M191.48,959.55a11.64,11.64,0,1,1,16.44,0A11.63,11.63,0,0,1,191.48,959.55Z" transform="translate(504.37 195.03)"/><path class="cls-5" d="M-197.08,1192.12a11.51,11.51,0,0,1-.11-16.48,11.55,11.55,0,0,1,16.48,0,11.55,11.55,0,0,1-.11,16.43A11.49,11.49,0,0,1-197.08,1192.12Z" transform="translate(504.37 195.03)"/><path class="cls-5" d="M-266.59,1416.75a11.58,11.58,0,0,1-.06-16.49,11.5,11.5,0,0,1,16.38.17,11.32,11.32,0,0,1,0,16.27A11.42,11.42,0,0,1-266.59,1416.75Z" transform="translate(504.37 195.03)"/><path class="cls-5" d="M-501,1175.42A11.64,11.64,0,0,1-501,1159a11.55,11.55,0,0,1,16.43,0,11.59,11.59,0,0,1,.11,16.43A11.71,11.71,0,0,1-501,1175.42Z" transform="translate(504.37 195.03)"/><path class="cls-5" d="M1089.4,181.65a11.45,11.45,0,0,1-.06-16.38,11.64,11.64,0,1,1,.06,16.38Z" transform="translate(504.37 195.03)"/><path class="cls-5" d="M1189.25,145.33A11.6,11.6,0,1,1,1205.68,129a11.6,11.6,0,0,1-16.43,16.38Z" transform="translate(504.37 195.03)"/><path class="cls-5" d="M1272.23,13.22a7.84,7.84,0,0,1,0-11,7.73,7.73,0,0,1,11,0,7.83,7.83,0,0,1,0,11A7.84,7.84,0,0,1,1272.23,13.22Z" transform="translate(504.37 195.03)"/><path class="cls-5" d="M1038.57,786.52a11.64,11.64,0,1,1,16.49.05A11.68,11.68,0,0,1,1038.57,786.52Z" transform="translate(504.37 195.03)"/><path class="cls-5" d="M460.64,1140.47a11.64,11.64,0,1,1,16.38-.06A11.53,11.53,0,0,1,460.64,1140.47Z" transform="translate(504.37 195.03)"/><path class="cls-5" d="M128,1388.65a11.62,11.62,0,1,1,16.43,0A11.45,11.45,0,0,1,128,1388.65Z" transform="translate(504.37 195.03)"/><path class="cls-5" d="M-4.06,1681.59a11.64,11.64,0,1,1,16.49-16.44,11.6,11.6,0,0,1-.11,16.38A11.6,11.6,0,0,1-4.06,1681.59Z" transform="translate(504.37 195.03)"/><polygon class="cls-5" points="447.67 1049.36 448 1048.65 447.12 1047.88 444.82 1048.32 445.75 1049.19 317.2 1374.83 252.07 1120.89 252.79 1120.23 250.16 1120.78 316.27 1378.11 316.87 1380.91 447.67 1049.36"/><polygon class="cls-5" points="251.8 1122.27 446.52 1050.18 446.08 1048.42 250.16 1120.78 251.8 1122.27"/></g><path class="cls-6" d="M910.62,102.55l-.39,2.91-27.6,209-.61.23L641.73,385.3l2.3-2.58ZM880.93,313.1,908.1,108,647.7,381.57Z" transform="translate(504.37 195.03)"/><path class="cls-6" d="M648.24,383.11l-6,1.7L276.33,492.32l-.33-.87L237.88,380.86l1.2-.11ZM277.37,490,635.92,384.81l-395.58-2.14Z" transform="translate(504.37 195.03)"/><path class="cls-6" d="M1018-147.65l.93.93-.32.49L909.74,106.61l-.88-.5L661.07-42.27l2-.6ZM908.92,104.09l107.24-249.33L665.61-41.72Z" transform="translate(504.37 195.03)"/><path class="cls-6" d="M910.78,105.18,910,106,645.13,384.15l-2.14.49.16-1.21L662.38-43.64l1.48.88ZM645,381.74,907.88,105.56l-243.75-146Z" transform="translate(504.37 195.03)"/><path class="cls-6" d="M882.73,312.56l-.1,2.14-.11.22L691,528.54l-.43.05L272,491.67l4.71-1.31L641.89,383.11l1.65.11.93-.77ZM690.31,526.62,879.56,315.46,645.13,384.15l-.88.82-2.19-.06L281.75,490.79Z" transform="translate(504.37 195.03)"/><path class="cls-6" d="M1066.07,176.44l-1.27,1L883.39,314.25l-2.57.88,0-1.36L908.59,104l1.15.6ZM883,312.29l179.5-135.41L910.12,106.66Z" transform="translate(504.37 195.03)"/><path class="cls-6" d="M1017.64-148.64l.88,1.7L1071-31.37l-.55.33L907.05,108.63Zm51.11,116.78-50.94-112.45-106,246.48Z" transform="translate(504.37 195.03)"/><path class="cls-6" d="M1189.25,222.62l-2.85,2.58L874.14,522.29l.1-2.25,6.69-206.11,1.7-1.32ZM876.16,517.91l306.41-291.4-299.29,87.8-.49.49Z" transform="translate(504.37 195.03)"/><path class="cls-6" d="M1069-35.42l46.94,103.19-2.19-1-50.56,114.64.28-4.6Zm43.65,100.29-42.12-92.4-5.2,199.59Z" transform="translate(504.37 195.03)"/><path class="cls-6" d="M1070.72-33.56l0,2-5.63,209.67-1.27-.6-156.27-72,1.21-.93Zm-7.34,208.85,5.42-204.85L911.05,105.18Z" transform="translate(504.37 195.03)"/><path class="cls-6" d="M1474.3,241.57l-289-16-.12-.44L1112.08,63.94l2.24.93Zm-287.84-17.91,279,15.61L1115.74,67.66Z" transform="translate(504.37 195.03)"/><path class="cls-6" d="M1471.56,239.66l-.88,1.25-330,495,.28-3.51,44.15-508.74,1,.06ZM1143,729,1468.22,241.3l-281.49-15.72Z" transform="translate(504.37 195.03)"/><path class="cls-6" d="M876.82,519.77,606.67,777l83.26-250.21h.55ZM610.61,770.53,872.16,521.69l-180.81,6.79Z" transform="translate(504.37 195.03)"/><path class="cls-6" d="M1189.47,219.88l-3,5.2L813.94,897.88l-.77-.5L607.22,774l.77-.81L874.24,519.77l.06-.06.27-.22ZM813.34,895.36l368.85-665.95-306.25,291,.11,1.2-1.2-.06-264.72,252Z" transform="translate(504.37 195.03)"/><path class="cls-6" d="M691.74,526.78l-.17,1.09L609.14,775.4l-1.21-.93L274.08,489.92ZM608.31,772.22l81.07-243.85-409.71-36.1Z" transform="translate(504.37 195.03)"/><path class="cls-6" d="M815.58,896.73l-1.48.82-109.44,48.2-.38-.66-98-174,2.91,1.75Zm-110.2,46.83,106.31-47L611.22,776.33Z" transform="translate(504.37 195.03)"/><path class="cls-6" d="M608.59,771.89l1,1.37,96.78,171.89-1,.38L431.94,1066.25l1.59-2.35Zm95.14,172.33L608.59,775.51,436.44,1062.42Z" transform="translate(504.37 195.03)"/><path class="cls-6" d="M277.81,488.49l-.11,2.68L268.77,748.4h-1L73.61,733.28l1-1.2ZM267,746.42l8.76-252.61L77.28,731.75Z" transform="translate(504.37 195.03)"/><path class="cls-6" d="M611.49,773.1l-2.35,1.42L156.37,1059l-.77-1.86.22-.33L267.13,746.7l.71-.16ZM158,1055.68,605.85,774.47,268.39,748.4Z" transform="translate(504.37 195.03)"/><path class="cls-6" d="M269.1,746.7l-.49,1.15L156.54,1060.17l-.82-2.85L74.26,731.63l1.27.06ZM156.7,1054,266.63,748.23l-190-14.51Z" transform="translate(504.37 195.03)"/><path class="cls-6" d="M611.33,774.8l-2.74-.11L267,748.23v-.87l9.1-258.15,1.36,1.31ZM268.71,746.54,606,772.61,277.7,493Z" transform="translate(504.37 195.03)"/><path class="cls-6" d="M882.79,311.79l-.16,2.52-6.69,206.12-1.09,1.14-.28.06-186,6.91,1.37-1.6ZM874.3,519.71l6.52-202.88-188,209.79,181.36-6.69Z" transform="translate(504.37 195.03)"/><path class="cls-6" d="M1187.22,220.37l-.38,4.44-44.31,508.58L811.42,898.81l1.42-2.58Zm-46.34,511.71,43.71-503.38L815.8,894.53Z" transform="translate(504.37 195.03)"/><path class="cls-6" d="M815.47,894.86l-1,2.2-61.24,135-.82-1.43-48.7-86.37ZM753.09,1028,812,898.48,706.36,945.15Z" transform="translate(504.37 195.03)"/><path class="cls-6" d="M244.17,1383.67l-3.77,5.64L67.48,1648.61l-.71-.16-95.42-26.08-.88-.87.76-.71ZM66.6,1646.53l168.59-252.62-261.54,227.2Z" transform="translate(504.37 195.03)"/><path class="cls-6" d="M68.57,1647.08l-.77,1-28.26,42.51-70.66-70.66,3.34.77Zm-29.36,40.53,26.4-39.43-90.48-24.71Z" transform="translate(504.37 195.03)"/><path class="cls-6" d="M241.44,1388.21l-1.26,1.27-268.4,233.28-357.72-357.68-2.69.82L-387,1264l-1.64-1.69,3.45.54Zm-269.6,232,265.71-230.82-620.81-124.22Z" transform="translate(504.37 195.03)"/><path class="cls-6" d="M239.69,380.81l.16.6,38.07,110-.33.39L71.8,738.59l2.74-6.35L237.88,380.86ZM275.78,491,238.64,383.27,79.19,726.71Z" transform="translate(504.37 195.03)"/><path class="cls-6" d="M611.28,770.91l-1.82,3.34L434.79,1065.1h0L239.25,1391.23l-.49-2.19L155.6,1057.16l.72-.39ZM433.75,1063.46l172.16-287L157.74,1058,240,1386.57l193-322-1.05-1.09Z" transform="translate(504.37 195.03)"/><path class="cls-6" d="M76.13,731.09l81.39,326.23L157,1059l-.82-.22-410.86-79.48,1.53-1.26Zm79.47,325.74L75,734.1-250.43,978.23Z" transform="translate(504.37 195.03)"/><path class="cls-6" d="M159.72,1057.6l-3.07,1.15-542,206-1.37.06.33-1.37,133.32-285.76.65.22Zm-543.48,204.69L153.09,1058.2-252,979.82Z" transform="translate(504.37 195.03)"/><path class="cls-6" d="M157.42,1056.28l.32,1.15,83,332.59-1.25-.38-628-125.49,544.9-207.38Zm81,331.28L156.21,1059-382,1263.71Z" transform="translate(504.37 195.03)"/><path class="cls-6" d="M1188.59,224.7l-2.46.82L878.24,315.79l4-3,181.91-137,.44.16ZM887.28,311.08l295.84-86.55-118.65-46.72Z" transform="translate(504.37 195.03)"/><path class="cls-6" d="M1114.71,65.14v.22l73,160.93-2.25-.82L1063,177.16l.38-.77L1112.9,64.21Zm69.4,157.75-70.5-155.83-48.09,109.22Z" transform="translate(504.37 195.03)"/><path class="cls-6" d="M1268.56,142.65,1113.33,66.52l-.32-.45L1067.22-35.2l3.23,3ZM1114.71,65.14l142.57,70L1072.47-28.19Z" transform="translate(504.37 195.03)"/><path class="cls-6" d="M1133.87,739.8a11.39,11.39,0,0,1,16.05-16.16,11.39,11.39,0,1,1-16.05,16.16Z" transform="translate(504.37 195.03)"/><path class="cls-6" d="M1174.63,234a11.48,11.48,0,1,1,16.26.06A11.48,11.48,0,0,1,1174.63,234Z" transform="translate(504.37 195.03)"/><path class="cls-6" d="M1055.49,185.75a11.42,11.42,0,1,1,16,0A11.36,11.36,0,0,1,1055.49,185.75Z" transform="translate(504.37 195.03)"/><path class="cls-6" d="M1253.06,143.53a11.45,11.45,0,1,1,16.27.05A11.41,11.41,0,0,1,1253.06,143.53Z" transform="translate(504.37 195.03)"/><path class="cls-6" d="M1462.58,249a11.43,11.43,0,1,1,16.21-.05A11.4,11.4,0,0,1,1462.58,249Z" transform="translate(504.37 195.03)"/><path class="cls-6" d="M864,529.85a11.49,11.49,0,1,1,16.22-.11A11.51,11.51,0,0,1,864,529.85Z" transform="translate(504.37 195.03)"/><path class="cls-6" d="M874.14,324.11A11.34,11.34,0,0,1,874,307.9a11.62,11.62,0,0,1,16.28,0,11.33,11.33,0,0,1-.12,16.21A11.22,11.22,0,0,1,874.14,324.11Z" transform="translate(504.37 195.03)"/><path class="cls-6" d="M1060.37-23.87a11.34,11.34,0,0,1-.11-16.21,11.36,11.36,0,0,1,16.27,0,11.38,11.38,0,0,1,0,16.16A11.42,11.42,0,0,1,1060.37-23.87Z" transform="translate(504.37 195.03)"/><path class="cls-6" d="M902.51,110.71a11.44,11.44,0,1,1,16.21,0A11.38,11.38,0,0,1,902.51,110.71Z" transform="translate(504.37 195.03)"/><path class="cls-6" d="M1010.52-138.07a11.24,11.24,0,0,1,.06-16.16,11.29,11.29,0,0,1,16,0,11.18,11.18,0,0,1,0,16A11.25,11.25,0,0,1,1010.52-138.07Z" transform="translate(504.37 195.03)"/><path class="cls-6" d="M1115.64-112a11.39,11.39,0,0,1,0-16.1,11.44,11.44,0,0,1,16.21-.06,11.46,11.46,0,0,1,0,16.27A11.32,11.32,0,0,1,1115.64-112Z" transform="translate(504.37 195.03)"/><path class="cls-6" d="M657.5-33.67a11.38,11.38,0,0,1,.06-16.16,11.4,11.4,0,0,1,16.1,0,11.55,11.55,0,0,1,.05,16.27A11.48,11.48,0,0,1,657.5-33.67Z" transform="translate(504.37 195.03)"/><path class="cls-6" d="M683.25,536.58a11.42,11.42,0,1,1,16.16-.05A11.32,11.32,0,0,1,683.25,536.58Z" transform="translate(504.37 195.03)"/><path class="cls-6" d="M635.92,390.78a11.43,11.43,0,1,1,16.16-16.16,11.43,11.43,0,0,1-16.16,16.16Z" transform="translate(504.37 195.03)"/><path class="cls-6" d="M271.46,500.32a11.42,11.42,0,1,1,16.26.12A11.35,11.35,0,0,1,271.46,500.32Z" transform="translate(504.37 195.03)"/><path class="cls-6" d="M232.07,391.21a11.42,11.42,0,1,1,16.1,0A11.29,11.29,0,0,1,232.07,391.21Z" transform="translate(504.37 195.03)"/><path class="cls-6" d="M259.51,755a11.44,11.44,0,1,1,16.11-.05A11.32,11.32,0,0,1,259.51,755Z" transform="translate(504.37 195.03)"/><path class="cls-6" d="M69.23,739.91a11.38,11.38,0,1,1,16-16.16,11.38,11.38,0,0,1-16,16.16Z" transform="translate(504.37 195.03)"/><path class="cls-6" d="M148.21,1067.13a11.45,11.45,0,0,1,0-16.22,11.31,11.31,0,0,1,16.22.06,11.45,11.45,0,0,1-16.22,16.16Z" transform="translate(504.37 195.03)"/><path class="cls-6" d="M-393.29,1270.56a11.25,11.25,0,0,1,0-16.21,11.4,11.4,0,0,1,16.27.05,11.42,11.42,0,0,1-.11,16.16A11.42,11.42,0,0,1-393.29,1270.56Z" transform="translate(504.37 195.03)"/><path class="cls-6" d="M-262.71,987.43a11.4,11.4,0,0,1-.16-16.26,11.34,11.34,0,0,1,16.22.05,11.17,11.17,0,0,1,0,16.1A11.26,11.26,0,0,1-262.71,987.43Z" transform="translate(504.37 195.03)"/><path class="cls-6" d="M803.64,904.67a11.43,11.43,0,1,1,16.11-16.22,11.43,11.43,0,0,1-16.11,16.22Z" transform="translate(504.37 195.03)"/><path class="cls-6" d="M746,1040a11.43,11.43,0,1,1,16.16,0A11.39,11.39,0,0,1,746,1040Z" transform="translate(504.37 195.03)"/><path class="cls-6" d="M426.63,1073.26a11.44,11.44,0,0,1,16.21-16.15,11.26,11.26,0,0,1,.11,16.15A11.52,11.52,0,0,1,426.63,1073.26Z" transform="translate(504.37 195.03)"/><path class="cls-6" d="M231.74,1398.13A11.41,11.41,0,0,1,247.9,1382a11.41,11.41,0,1,1-16.16,16.1Z" transform="translate(504.37 195.03)"/><path class="cls-6" d="M-35.94,1628.79a11.42,11.42,0,0,1,.06-16.16,11.34,11.34,0,0,1,16.1,0,11.33,11.33,0,0,1,.16,16.16A11.44,11.44,0,0,1-35.94,1628.79Z" transform="translate(504.37 195.03)"/><path class="cls-6" d="M33.46,1696.6a8.58,8.58,0,1,1,12.1,0A8.66,8.66,0,0,1,33.46,1696.6Z" transform="translate(504.37 195.03)"/><path class="cls-6" d="M59.31,1656.72a11.45,11.45,0,1,1,16.22-.06A11.42,11.42,0,0,1,59.31,1656.72Z" transform="translate(504.37 195.03)"/><path class="cls-6" d="M599.33,782.69a11.47,11.47,0,1,1,16.21,0A11.43,11.43,0,0,1,599.33,782.69Z" transform="translate(504.37 195.03)"/><polygon class="cls-6" points="1574.38 161.69 1523.6 49.67 1625.04 75.47 1626.09 73.83 1522.4 47.48 1521.74 47.53 1520.97 48.25 1573.23 163.49 1574.38 161.69"/><polygon class="cls-6" points="1575.47 167.11 1627.29 74.7 1625.21 74.7 1574.21 165.85 1575.47 167.11"/><g class="cls-4"><path class="cls-5" d="M675.6,1952.71l.87-.82,288.83-229.5.6,3L963.65,2136l-1.53.6-.43-.27Zm288.44-227L678.72,1952.61,961.9,2134.23Z" transform="translate(504.37 195.03)"/><path class="cls-5" d="M530.34,1703.11h1.75l433,19.72.77,1.48-.55.38L676.91,1954.08l-.6-.93Zm432.22,21.47L533.68,1705l73.89,126.8.66.66-.28.11,69.46,118.86Z" transform="translate(504.37 195.03)"/><path class="cls-5" d="M191.45,1493.32,273.06,1412l153.15-69.45.38,1,107,362.5-2.08-1.21-208-129.49h0Zm82.49-79.75-79.37,79.48,130.53,81.23,2,0-.76.77,204.08,126.75-105.33-356.8Z" transform="translate(504.37 195.03)"/><path class="cls-5" d="M213.85,1842.18l1.53-.11,196-18.63-.49,1.37-79,215.93Zm194.78-16.71L217,1843.88l114.54,192.64Z" transform="translate(504.37 195.03)"/><path class="cls-5" d="M215.22,1840.81l1,1.64,116.39,196-.43,1.7-.6,0-189.36,16.65.44-1.25Zm115.35,197.68L215.72,1845.08,145,2054.92Z" transform="translate(504.37 195.03)"/><path class="cls-5" d="M1138.61,2568.1l1,1.65,233,391.57-2.41-1.09-329.85-130,.27-.87Zm229.61,389.45-229.29-385-96.18,256.73Z" transform="translate(504.37 195.03)"/><path class="cls-5" d="M557.67,2064.29l.76.11,406.65,71.09-3.34,1.1L411,2326.88l1.26-2.19ZM957.79,2136l-399.14-69.73L414.93,2323.59Z" transform="translate(504.37 195.03)"/><path class="cls-5" d="M1570.39,2632.19l.17,2.9,30.5,396.13-1.31-.5L1369,2960.07l.6-1.05ZM1599,3028.75l-30-390.7-197.24,320.87Z" transform="translate(504.37 195.03)"/><path class="cls-5" d="M1137,2569.09l2,.27,432.27,65-.87,1.25-200,325.69-.77-1.31Zm431.18,66.6-427.68-64.08,229.89,386.16Z" transform="translate(504.37 195.03)"/><path class="cls-5" d="M94.72,1652.55l1.09,1.53,121,189.42-1.09.38-218.5,70.93L0,1912Zm119.41,189.9-119-185.85L2.37,1911.25Z" transform="translate(504.37 195.03)"/><path class="cls-5" d="M1141.4,2566.3,1042,2830.64l-133.32-8.22-1.32-1.32v-.76l.22-.44ZM1041,2828.72l95.31-254.38L909.6,2820.56Z" transform="translate(504.37 195.03)"/><path class="cls-5" d="M963,2134.07l177.25,437.16-1.48.05-483-1.75-.93-1,.6-.88Zm174.34,435.34L962.45,2138l-304.6,429.59Z" transform="translate(504.37 195.03)"/><path class="cls-5" d="M409.73,1822.35l1,1.7,148.77,241.71-1,.45L276,2190.55v-1.92ZM556.85,2065,410.22,1826.68l-77.51,211.86,1.09,1.75h-1.69l-53.68,147.24Z" transform="translate(504.37 195.03)"/><path class="cls-5" d="M854.71,2660.67l1.48-.6,285.87-91.86L909.27,2820.94v1.86l-1.59-1.37Zm280.94-88.29-277.49,89.06,50.07,157.86Z" transform="translate(504.37 195.03)"/><path class="cls-5" d="M1369.54,2958.31l231,71,.71.66-.55.76-241.82,241.89-13.09-13,.16-.54Zm228.84,72.14-227.09-69.78-23.44,298.19,11.06,11Z" transform="translate(504.37 195.03)"/><path class="cls-5" d="M1568.58,2633.56l1.53.65,290.42,135.41-.22,1.53-261,260.83-.22-1.91Zm289.54,137.15-287.51-134L1600.79,3028Z" transform="translate(504.37 195.03)"/><path class="cls-5" d="M961,2134.13l2.2.93,357.67,166.24-.66.82-181.69,270.14-.54-1.58ZM1318.1,2302,964.42,2137.79,1139,2568.38Z" transform="translate(504.37 195.03)"/><path class="cls-5" d="M93.13,1653.53l1.92.06,266,21-1.27,1.54L215.38,1844.53Zm264.23,22.63L96.8,1655.67l118.8,185.74Z" transform="translate(504.37 195.03)"/><path class="cls-5" d="M606.42,1829.74l1.2,2.08,70.67,121.06-.5.54L556.74,2068l.49-2.8Zm69.51,122.7-68.69-117.65-47.49,227.8Z" transform="translate(504.37 195.03)"/><path class="cls-5" d="M556.3,2065.88l1.26-1.27L677,1951.51l.6.38L964.48,2136l-3.18.6Zm120.89-112L560.25,2064.67l398.09,69.56Z" transform="translate(504.37 195.03)"/><path class="cls-5" d="M359.55,1673.53l.55,1.59,51,150.08-1,.16-196.91,18.79,1.48-1.75Zm49.25,150.25-49.91-146.53-141.31,164.6Z" transform="translate(504.37 195.03)"/><path class="cls-5" d="M323.13,1573.13l2.24,1.42,208.09,129.32-.71.77L409.61,1826.19l-.49-1.48ZM530.39,1704.2,326.63,1577.45l83.75,245.34Z" transform="translate(504.37 195.03)"/><path class="cls-5" d="M407.81,1825.2l1.42-1.37,122.92-121.32,76.41,130.63-1.81-.11Zm124-119.68L412.19,1823.78l192.92,7.39Z" transform="translate(504.37 195.03)"/><path class="cls-5" d="M408.3,1823.44l1.75.06,197.63,7.72v1.27L558.6,2067.8l-1.26-2ZM605.65,1833l-194-7.5,146.08,237.33Z" transform="translate(504.37 195.03)"/><path class="cls-5" d="M1319.36,2300.09l.82,1,251.58,335.27-2.25-.44L1137.18,2571l.82-1.1Zm248.18,333.69-248-330.57-179.12,266.37Z" transform="translate(504.37 195.03)"/><path class="cls-5" d="M122,1562.78,192.82,1492l.66.32,133.59,83-1.91.66L93.68,1655.89l.38-1.64Zm71.15-68.42-69.35,69.4L96.53,1653.1l226.1-78.16Z" transform="translate(504.37 195.03)"/><path class="cls-5" d="M90.55,1655.18l4.17-1.59,230.38-79.53.71,1,34.62,101.45-1.37-.11Zm233.89-78.82L99.54,1654l258.32,20.38Z" transform="translate(504.37 195.03)"/><path class="cls-5" d="M433.17,1351.4A11.64,11.64,0,0,1,416.68,1335a11.64,11.64,0,0,1,16.49,16.43Z" transform="translate(504.37 195.03)"/><path class="cls-5" d="M542,1712.8a11.62,11.62,0,1,1,0-16.37A11.31,11.31,0,0,1,542,1712.8Z" transform="translate(504.37 195.03)"/><path class="cls-5" d="M416.79,1832.65a11.62,11.62,0,1,1-16.38-16.49,11.62,11.62,0,0,1,16.38,16.49Z" transform="translate(504.37 195.03)"/><path class="cls-5" d="M226.12,1851.71a11.62,11.62,0,1,1-.05-16.38A11.56,11.56,0,0,1,226.12,1851.71Z" transform="translate(504.37 195.03)"/><path class="cls-5" d="M105.24,1660.82a11.64,11.64,0,1,1-.06-16.38A11.56,11.56,0,0,1,105.24,1660.82Z" transform="translate(504.37 195.03)"/><path class="cls-5" d="M338.41,2044.84A11.6,11.6,0,0,1,322,2028.46a11.6,11.6,0,1,1,16.43,16.38Z" transform="translate(504.37 195.03)"/><path class="cls-5" d="M616.39,1839.5a11.58,11.58,0,1,1,.11-16.44A11.6,11.6,0,0,1,616.39,1839.5Z" transform="translate(504.37 195.03)"/><path class="cls-5" d="M685.13,1962.24a11.6,11.6,0,1,1-16.38-16.43,11.67,11.67,0,0,1,16.32.06A11.48,11.48,0,0,1,685.13,1962.24Z" transform="translate(504.37 195.03)"/><path class="cls-5" d="M566.65,2072.61a11.62,11.62,0,1,1,0-16.32A11.56,11.56,0,0,1,566.65,2072.61Z" transform="translate(504.37 195.03)"/><path class="cls-5" d="M421.34,2332.3a11.6,11.6,0,1,1-16.44-16.38,11.6,11.6,0,0,1,16.44,16.38Z" transform="translate(504.37 195.03)"/><path class="cls-5" d="M284.18,2197.11a11.59,11.59,0,0,1-16.37-16.42,11.35,11.35,0,0,1,16.43-.06A11.51,11.51,0,0,1,284.18,2197.11Z" transform="translate(504.37 195.03)"/><path class="cls-5" d="M151.35,2062.75a9.56,9.56,0,0,1-13.63-.1,9.33,9.33,0,0,1,0-13.48,9.53,9.53,0,0,1,13.69-.16A9.69,9.69,0,0,1,151.35,2062.75Z" transform="translate(504.37 195.03)"/><path class="cls-5" d="M9.16,1918a9.64,9.64,0,0,1-13.69.11,9.66,9.66,0,1,1,13.64-13.69A9.46,9.46,0,0,1,9.16,1918Z" transform="translate(504.37 195.03)"/><path class="cls-5" d="M662.62,2576.32a9.67,9.67,0,1,1-13.7-13.64,9.55,9.55,0,0,1,13.7-.06A9.65,9.65,0,0,1,662.62,2576.32Z" transform="translate(504.37 195.03)"/><path class="cls-5" d="M862.21,2668.18a9.67,9.67,0,1,1-13.69-13.65,9.67,9.67,0,1,1,13.69,13.65Z" transform="translate(504.37 195.03)"/><path class="cls-5" d="M915.51,2829.27a9.68,9.68,0,1,1,0-13.7A9.69,9.69,0,0,1,915.51,2829.27Z" transform="translate(504.37 195.03)"/><path class="cls-5" d="M1120.8,3032.59a9.65,9.65,0,1,1,.06-13.7A9.65,9.65,0,0,1,1120.8,3032.59Z" transform="translate(504.37 195.03)"/><path class="cls-5" d="M1049.6,2836.11a9.71,9.71,0,1,1,0-13.75A9.7,9.7,0,0,1,1049.6,2836.11Z" transform="translate(504.37 195.03)"/><path class="cls-5" d="M971.11,2145a11.63,11.63,0,0,1-16.38-.11,11.62,11.62,0,1,1,16.43-16.43A11.64,11.64,0,0,1,971.11,2145Z" transform="translate(504.37 195.03)"/><path class="cls-5" d="M1147.15,2580.7a11.64,11.64,0,1,1,0-16.43A11.63,11.63,0,0,1,1147.15,2580.7Z" transform="translate(504.37 195.03)"/><path class="cls-5" d="M1379.72,2969.27a11.62,11.62,0,1,1,0-16.27A11.51,11.51,0,0,1,1379.72,2969.27Z" transform="translate(504.37 195.03)"/><path class="cls-5" d="M1604.35,3038.78a11.54,11.54,0,1,1-16.32-16.32,11.54,11.54,0,0,1,16.32,16.32Z" transform="translate(504.37 195.03)"/><path class="cls-5" d="M1363,3273.21a11.64,11.64,0,1,1,0-16.6A11.64,11.64,0,0,1,1363,3273.21Z" transform="translate(504.37 195.03)"/><path class="cls-5" d="M369.25,1682.78a11.58,11.58,0,1,1-16.38-16.37,11.58,11.58,0,1,1,16.38,16.37Z" transform="translate(504.37 195.03)"/><path class="cls-5" d="M332.93,1582.93a11.6,11.6,0,1,1,0-16.27A11.46,11.46,0,0,1,332.93,1582.93Z" transform="translate(504.37 195.03)"/><path class="cls-5" d="M200.82,1500a7.84,7.84,0,0,1-11,0,7.73,7.73,0,0,1,0-11,7.79,7.79,0,0,1,11,11Z" transform="translate(504.37 195.03)"/><path class="cls-5" d="M974.12,1733.62a11.64,11.64,0,1,1,0-16.49A11.68,11.68,0,0,1,974.12,1733.62Z" transform="translate(504.37 195.03)"/><path class="cls-5" d="M1328.07,2311.54a11.64,11.64,0,1,1-.06-16.38A11.53,11.53,0,0,1,1328.07,2311.54Z" transform="translate(504.37 195.03)"/><path class="cls-5" d="M1576.25,2644.18a11.62,11.62,0,1,1,0-16.43A11.44,11.44,0,0,1,1576.25,2644.18Z" transform="translate(504.37 195.03)"/><path class="cls-5" d="M1869.19,2776.24a11.64,11.64,0,1,1-.06-16.38A11.6,11.6,0,0,1,1869.19,2776.24Z" transform="translate(504.37 195.03)"/><polygon class="cls-5" points="1546.3 3023.91 1545.59 3023.58 1544.82 3024.46 1545.26 3026.76 1546.13 3025.83 1871.77 3154.38 1617.83 3219.51 1617.17 3218.8 1617.72 3221.43 1875.06 3155.31 1877.85 3154.71 1546.3 3023.91"/><polygon class="cls-5" points="1619.21 3219.78 1547.12 3025.06 1545.37 3025.5 1617.72 3221.43 1619.21 3219.78"/></g><path class="cls-6" d="M290.15,1861.57l2.91.38,209,27.61.23.6,70.59,240.3-2.57-2.3Zm210.55,29.69-205.07-27.17,273.54,260.39Z" transform="translate(504.37 195.03)"/><path class="cls-6" d="M570.71,2123.94l1.7,6,107.51,365.94-.87.33-110.59,38.13-.11-1.21Zm106.91,370.88L572.41,2136.26l-2.14,395.58Z" transform="translate(504.37 195.03)"/><path class="cls-6" d="M39.94,1754.21l.94-.93.49.33,252.84,108.83-.5.88-148.38,247.8-.6-2Zm251.75,109.06L42.36,1756l103.52,350.55Z" transform="translate(504.37 195.03)"/><path class="cls-6" d="M292.78,1861.41l.77.81,278.19,264.84.5,2.14L571,2129,144,2109.81l.88-1.49Zm276.56,265.76L293.16,1864.3l-146,243.76Z" transform="translate(504.37 195.03)"/><path class="cls-6" d="M500.16,1889.45l2.14.11.21.11,213.62,191.49,0,.44-36.91,418.63-1.32-4.7L570.71,2130.29l.1-1.64-.76-.94Zm214.06,192.42L503.06,1892.62l68.68,234.44.83.87-.06,2.2,105.88,360.3Z" transform="translate(504.37 195.03)"/><path class="cls-6" d="M364,1706.12l1,1.26,136.82,181.41.88,2.58-1.37-.06L291.58,1863.6l.6-1.16Zm135.84,183.11-135.4-179.49-70.22,152.32Z" transform="translate(504.37 195.03)"/><path class="cls-6" d="M39,1754.54l1.7-.88,115.57-52.47.33.55,139.67,163.39Zm116.77-51.1L43.29,1754.38l246.48,106Z" transform="translate(504.37 195.03)"/><path class="cls-6" d="M410.22,1582.93l2.57,2.85,297.1,312.27-2.25-.11-206.11-6.68-1.32-1.7ZM705.51,1896l-291.4-306.4,87.8,299.28.49.49Z" transform="translate(504.37 195.03)"/><path class="cls-6" d="M152.18,1703.22l103.19-46.94-1,2.18L369,1709l-4.6-.27Zm100.29-43.66-92.41,42.12,199.6,5.21Z" transform="translate(504.37 195.03)"/><path class="cls-6" d="M154,1701.46l2,0,209.68,5.64-.6,1.26-72,156.27-.93-1.21Zm208.85,7.34L158,1703.38l134.74,157.75Z" transform="translate(504.37 195.03)"/><path class="cls-6" d="M429.17,1297.89l-16.05,289-.44.11-161.14,73.07.93-2.25Zm-17.91,287.84,15.61-279L255.26,1656.44Z" transform="translate(504.37 195.03)"/><path class="cls-6" d="M427.25,1300.62l1.26.88,495,330-3.51-.28L411.26,1587.1l.05-1Zm489.3,328.59L428.9,1304l-15.72,281.48Z" transform="translate(504.37 195.03)"/><path class="cls-6" d="M707.37,1895.37l257.22,270.14-250.21-83.26v-.54Zm250.75,266.2L709.29,1900l6.79,180.81Z" transform="translate(504.37 195.03)"/><path class="cls-6" d="M407.48,1582.71l5.2,3,672.79,372.58-.49.76L961.57,2165l-.82-.76L707.37,1897.94l-.06,0-.22-.28ZM1083,1958.85,417,1590l291,306.24,1.21-.11-.06,1.21,252,264.72Z" transform="translate(504.37 195.03)"/><path class="cls-6" d="M714.38,2080.45l1.09.16L963,2163.05l-.93,1.2L677.52,2498.1Zm245.44,83.42L716,2082.8l-36.1,409.71Z" transform="translate(504.37 195.03)"/><path class="cls-6" d="M1084.32,1956.6l.83,1.48,48.2,109.44-.66.38-174,98,1.75-2.9Zm46.84,110.21-47-106.32L963.93,2161Z" transform="translate(504.37 195.03)"/><path class="cls-6" d="M959.49,2163.59l1.37-1,171.89-96.79.38,1,120.72,273.38-2.35-1.59Zm172.32-95.14-168.7,95.14L1250,2335.75Z" transform="translate(504.37 195.03)"/><path class="cls-6" d="M676.09,2494.37l2.68.12L936,2503.41v1l-15.12,194.13-1.2-1ZM934,2505.22l-252.62-8.76L919.34,2694.9Z" transform="translate(504.37 195.03)"/><path class="cls-6" d="M960.7,2160.69l1.42,2.36,284.5,452.76-1.86.77-.33-.22L934.3,2505.06l-.17-.71Zm282.58,453.48L962.07,2166.33,936,2503.8Z" transform="translate(504.37 195.03)"/><path class="cls-6" d="M934.3,2503.08l1.15.5,312.32,112.07-2.85.82-325.69,81.45.06-1.26Zm307.28,112.4L935.83,2505.55l-14.51,190Z" transform="translate(504.37 195.03)"/><path class="cls-6" d="M962.4,2160.86l-.11,2.73-26.46,341.63H935l-258.15-9.09,1.32-1.37Zm-28.27,342.61,26.07-337.24L680.64,2494.49Z" transform="translate(504.37 195.03)"/><path class="cls-6" d="M499.39,1889.39l2.52.17L708,1896.24l1.15,1.1.06.27,6.9,186-1.59-1.37Zm207.92,8.5-202.88-6.52,209.79,188-6.69-181.36Z" transform="translate(504.37 195.03)"/><path class="cls-6" d="M408,1585l4.44.38L921,1629.66l165.41,331.11-2.57-1.43Zm511.71,46.34L416.3,1587.59l665.83,368.8Z" transform="translate(504.37 195.03)"/><path class="cls-6" d="M1082.46,1956.71l2.19,1,135,61.24-1.43.82-86.38,48.69Zm133.16,62.39-129.54-58.88,46.67,105.6Z" transform="translate(504.37 195.03)"/><path class="cls-6" d="M1571.26,2528l5.65,3.77,259.3,172.93-.16.71L1810,2800.84l-.87.87-.71-.76Zm262.87,177.58L1581.51,2537l227.2,261.55Z" transform="translate(504.37 195.03)"/><path class="cls-6" d="M1834.67,2703.61l1,.77,42.51,28.26-70.66,70.66.76-3.34Zm40.54,29.37-39.44-26.41-24.7,90.49Z" transform="translate(504.37 195.03)"/><path class="cls-6" d="M1575.81,2530.75l1.27,1.25,233.27,268.4-357.67,357.73.82,2.69-1.86-1.65-1.7,1.65.55-3.46Zm232,269.59L1577,2534.63l-124.22,620.82Z" transform="translate(504.37 195.03)"/><path class="cls-6" d="M568.41,2532.5l.6-.17,110-38.06.39.33,246.81,205.78-6.35-2.74L568.46,2534.31Zm110.14-36.1-107.68,37.14L914.31,2693Z" transform="translate(504.37 195.03)"/><path class="cls-6" d="M958.51,2160.91l3.34,1.81,290.85,174.67h0l326.13,195.54-2.19.5-331.88,83.15-.39-.71Zm292.55,177.53-287-172.16,281.48,448.16,328.59-82.27-322-193-1.09,1Z" transform="translate(504.37 195.03)"/><path class="cls-6" d="M918.69,2696.06l326.23-81.4,1.65.49-.22.82-79.48,410.87-1.26-1.54Zm325.74-79.48L921.7,2697.21l244.13,325.41Z" transform="translate(504.37 195.03)"/><path class="cls-6" d="M1245.2,2612.47l1.15,3.07,206,542,.06,1.37-1.37-.33-285.76-133.32.22-.66Zm204.69,543.47L1245.8,2619.1l-78.38,405.11Z" transform="translate(504.37 195.03)"/><path class="cls-6" d="M1243.88,2614.77l1.15-.33,332.59-83-.38,1.26-125.49,628-207.38-544.89Zm331.28-81L1246.57,2616l204.74,538.22Z" transform="translate(504.37 195.03)"/><path class="cls-6" d="M412.3,1583.59l.82,2.46,90.27,307.89-3-4-137-181.9.16-.44Zm86.38,301.31-86.55-295.84-46.72,118.65Z" transform="translate(504.37 195.03)"/><path class="cls-6" d="M252.74,1657.48H253l160.93-73-.83,2.24-48.31,122.48-.76-.39-112.18-49.51Zm157.75-69.4-155.83,70.5,109.22,48.09Z" transform="translate(504.37 195.03)"/><path class="cls-6" d="M330.25,1503.62l-76.14,155.23-.44.33L152.4,1705l2.95-3.23Zm-77.51,153.86,69.95-142.57-163.28,184.8Z" transform="translate(504.37 195.03)"/><path class="cls-6" d="M927.4,1638.31a11.39,11.39,0,0,1-16.16-16,11.39,11.39,0,1,1,16.16,16Z" transform="translate(504.37 195.03)"/><path class="cls-6" d="M421.61,1597.56a11.48,11.48,0,1,1,.06-16.27A11.48,11.48,0,0,1,421.61,1597.56Z" transform="translate(504.37 195.03)"/><path class="cls-6" d="M373.35,1716.69a11.43,11.43,0,1,1,0-16A11.35,11.35,0,0,1,373.35,1716.69Z" transform="translate(504.37 195.03)"/><path class="cls-6" d="M331.12,1519.12a11.44,11.44,0,1,1,.06-16.27A11.4,11.4,0,0,1,331.12,1519.12Z" transform="translate(504.37 195.03)"/><path class="cls-6" d="M436.62,1309.61a11.43,11.43,0,1,1-.05-16.22A11.41,11.41,0,0,1,436.62,1309.61Z" transform="translate(504.37 195.03)"/><path class="cls-6" d="M717.45,1908.18a11.49,11.49,0,1,1-.12-16.21A11.51,11.51,0,0,1,717.45,1908.18Z" transform="translate(504.37 195.03)"/><path class="cls-6" d="M511.71,1898.05a11.34,11.34,0,0,1-16.21.11,11.61,11.61,0,0,1,0-16.27,11.44,11.44,0,0,1,16.21,16.16Z" transform="translate(504.37 195.03)"/><path class="cls-6" d="M163.73,1711.82a11.44,11.44,0,1,1,0-16.16A11.34,11.34,0,0,1,163.73,1711.82Z" transform="translate(504.37 195.03)"/><path class="cls-6" d="M298.31,1869.68a11.44,11.44,0,1,1,0-16.22A11.39,11.39,0,0,1,298.31,1869.68Z" transform="translate(504.37 195.03)"/><path class="cls-6" d="M49.53,1761.66a11.41,11.41,0,1,1-.11-16.1A11.23,11.23,0,0,1,49.53,1761.66Z" transform="translate(504.37 195.03)"/><path class="cls-6" d="M75.6,1656.55a11.44,11.44,0,1,1,.11-16.21A11.4,11.4,0,0,1,75.6,1656.55Z" transform="translate(504.37 195.03)"/><path class="cls-6" d="M153.93,2114.68a11.43,11.43,0,0,1-16.16-16.16,11.43,11.43,0,1,1,16.16,16.16Z" transform="translate(504.37 195.03)"/><path class="cls-6" d="M724.18,2088.94a11.43,11.43,0,1,1,0-16.16A11.32,11.32,0,0,1,724.18,2088.94Z" transform="translate(504.37 195.03)"/><path class="cls-6" d="M578.37,2136.26a11.42,11.42,0,1,1-16.15-16.16,11.42,11.42,0,0,1,16.15,16.16Z" transform="translate(504.37 195.03)"/><path class="cls-6" d="M687.92,2500.73a11.42,11.42,0,1,1,.11-16.27A11.36,11.36,0,0,1,687.92,2500.73Z" transform="translate(504.37 195.03)"/><path class="cls-6" d="M578.81,2540.11a11.42,11.42,0,1,1,0-16.1A11.27,11.27,0,0,1,578.81,2540.11Z" transform="translate(504.37 195.03)"/><path class="cls-6" d="M942.57,2512.67a11.44,11.44,0,1,1-.06-16.1A11.32,11.32,0,0,1,942.57,2512.67Z" transform="translate(504.37 195.03)"/><path class="cls-6" d="M927.51,2703a11.39,11.39,0,0,1-16.16-16.05A11.39,11.39,0,0,1,927.51,2703Z" transform="translate(504.37 195.03)"/><path class="cls-6" d="M1254.73,2624a11.45,11.45,0,0,1-16.22,0,11.3,11.3,0,0,1,.06-16.21,11.44,11.44,0,0,1,16.16,16.21Z" transform="translate(504.37 195.03)"/><path class="cls-6" d="M1458.16,3165.47a11.25,11.25,0,0,1-16.21.06,11.44,11.44,0,1,1,16.21-.06Z" transform="translate(504.37 195.03)"/><path class="cls-6" d="M1175,3034.89a11.41,11.41,0,1,1-16.21-16,11.41,11.41,0,0,1,16.21,16Z" transform="translate(504.37 195.03)"/><path class="cls-6" d="M1092.27,1968.54a11.43,11.43,0,1,1-16.22-16.1,11.43,11.43,0,0,1,16.22,16.1Z" transform="translate(504.37 195.03)"/><path class="cls-6" d="M1227.56,2026.22a11.43,11.43,0,1,1,0-16.16A11.38,11.38,0,0,1,1227.56,2026.22Z" transform="translate(504.37 195.03)"/><path class="cls-6" d="M1260.86,2345.55a11.44,11.44,0,0,1-16.16-16.21,11.28,11.28,0,0,1,16.16-.11A11.52,11.52,0,0,1,1260.86,2345.55Z" transform="translate(504.37 195.03)"/><path class="cls-6" d="M1585.73,2540.44a11.4,11.4,0,0,1-16.1-16.15,11.4,11.4,0,1,1,16.1,16.15Z" transform="translate(504.37 195.03)"/><path class="cls-6" d="M1816.38,2808.12a11.42,11.42,0,1,1,0-16.32A11.41,11.41,0,0,1,1816.38,2808.12Z" transform="translate(504.37 195.03)"/><path class="cls-6" d="M1884.2,2738.72a8.58,8.58,0,1,1,0-12.1A8.65,8.65,0,0,1,1884.2,2738.72Z" transform="translate(504.37 195.03)"/><path class="cls-6" d="M1844.32,2712.87a11.44,11.44,0,1,1-.06-16.21A11.42,11.42,0,0,1,1844.32,2712.87Z" transform="translate(504.37 195.03)"/><path class="cls-6" d="M970.28,2172.85a11.46,11.46,0,1,1,.06-16.21A11.41,11.41,0,0,1,970.28,2172.85Z" transform="translate(504.37 195.03)"/><polygon class="cls-6" points="658.63 1897.2 546.61 1947.98 572.41 1846.54 570.77 1845.49 544.42 1949.18 544.48 1949.84 545.19 1950.61 660.43 1898.35 658.63 1897.2"/><polygon class="cls-6" points="664.05 1896.11 571.65 1844.29 571.65 1846.37 662.79 1897.37 664.05 1896.11"/><path class="cls-6" d="M322.45,2656.6l-12.92-125.67-.54.06.48-.25L254,2425.07l-1.05-2v1.1L156.37,2346l1.26-.11-94.12-31.3-.12-.26-.38.16L-24.6,2316v-.17l-90.24,27.61,88.7,7.62-.38.15,2,0L-31,2406.63l0,.23.06.08,42.15,182.71.53-.13.51.17.1-.32,123.41-13.09.46.42.13-.43L233,2577l.5.66.12-.45L297.79,2606l.67,1.61,0-.17,22.94,49.78,1-.45-.07-.15Zm-24.5-53-42.48-101.64,52.93,29.35ZM233,2575.25,164.21,2484l89.48,17.14Zm-97.42-.5L44.89,2494l117.3-10.16Zm-55.9-223.1-100.94-1.46,84.07-34.43Zm.31,1.08-1.26,56.91-100.59-58.38Zm103.57,40.11L79.84,2409.92,81.1,2353ZM79.49,2411.46l82.13,71.3L44.54,2492.9Zm1-.55,104.42-17.19-22.28,88.49Zm83.11,71.86,22.25-88.37L253.25,2500Zm23.5-88.42,65.84,31.32.87,73.14Zm-.83-1.59.09-.37-.47.07-28.61-44.29,92.31,74.71Zm-2-.82-101.34-39.4,71.78-6.35Zm-107.1,18-107-3.78,6.43-54.6Zm1.31,1.13-35,81.49-72.76-85.3Zm229.19,118.56-52.76-29.26-.86-72.82Zm-226.76-178L64.15,2316l88.19,29.33Zm-106.55-34.37,1.21,32.84-84.76-7.28Zm1.08-.19,84.82-1.42-83.62,34.25Zm-4.89,91.66L43,2493.64l0,.18-31.22,93.71Zm42.14,179.51,31.22-93.71,90.72,80.78Zm123.93-13,26.53-90.81L232.21,2576Zm117.85-72.84,42.71,102.18-63.26-28.38Zm54.43,33,12.19,118.52-22.32-48.44Z" transform="translate(504.37 195.03)"/><path class="cls-6" d="M321.43,2658.55a1.35,1.35,0,0,1-1.22-.78l-22.68-49.22a1.37,1.37,0,0,1-.3-.44l-.46-1.12-62.71-28.13a1.7,1.7,0,0,1-.32.1,1.36,1.36,0,0,1-1.31-.51l-.1-.14-95.18-.71a1.31,1.31,0,0,1-.6.38,1.35,1.35,0,0,1-1.25-.29l0,0L13.16,2590.62a1.32,1.32,0,0,1-1.37.34l-.16-.05-.16,0a1.34,1.34,0,0,1-1.6-1l-42.1-182.53a1.42,1.42,0,0,1-.13-.72l0-.23,6.35-53.93h-.57a1.23,1.23,0,0,1-.75-.25l-87.66-7.52a1.32,1.32,0,0,1-1.21-1.19,1.33,1.33,0,0,1,.93-1.41L-25,2314.54a1.31,1.31,0,0,1,1,.1l86.71-1.44.15-.06a1.31,1.31,0,0,1,1.53.39l93.63,31.14a1.32,1.32,0,0,1,.9,1.41,1.27,1.27,0,0,1-.06.28l93.36,75.56a1.26,1.26,0,0,1,.34-.13,1.33,1.33,0,0,1,1.5.67l1,2,55.51,105.67a1,1,0,0,1,.12.32,1.19,1.19,0,0,1,.09.36l12.92,125.66a1.37,1.37,0,0,1-.06.57,1.8,1.8,0,0,1,0,.19,1.39,1.39,0,0,1-.7.75l-1,.45a1.23,1.23,0,0,1-.55.13m-21.29-53.28L319,2646.09l-10.27-99.86Zm-64.63-29.87,59.14,26.54-39.93-95.54ZM258.18,2505l39.14,93.67L307,2532Zm-213.65-8.08L14.61,2586.7l116.89-12.39Zm-71.46-83.14,39,168.89L41.55,2494Zm165.32,160.14,91.14.72-65.84-87.3ZM48.08,2495l86.86,77.34,25.43-87.07Zm119.27-9.08,65.13,86.36L252,2502.16Zm88.88,13.65,48.19,26.73-49-93.24Zm-91-17.86,85.24,16.35-64.08-100.37Zm25.49-84.18,61.7,96.62-.8-67.66ZM80,2413.66l-33.35,77.73,111.73-9.68Zm-106.28-4.95,69.41,81.36,33.37-77.73Zm109.8,3.05,78.35,68,21.26-84.42Zm104.1-19.84,52.44,24.94-77.13-62.41,23.66,36.62a1.29,1.29,0,0,1,.76.42,1.21,1.21,0,0,1,.27.43m-216,13,100.28,3.54-94.25-54.7Zm110.77-50-1.19,53.44,97.38-16Zm-99.14-2.25,94.23,54.7L78.67,2354Zm105.47.7,92.21,35.86L154,2347.58ZM-14.69,2349l92.3,1.33-15.42-32.81Zm81.36-30.73,15,32,64.12-5.67Zm-168.9,23.87,76.41,6.56L-26.9,2319Zm79.05-23.72,1.08,29.57,75.31-30.84Z" transform="translate(504.37 195.03)"/><path class="cls-6" d="M48.29,2581.8A35,35,0,0,1,22.43,2624a35.05,35.05,0,0,1-16.19-68.21,35,35,0,0,1,42.05,26" transform="translate(504.37 195.03)"/><path class="cls-6" d="M168.1,2569.05c4.55,19.17-5,37.86-21.32,41.73s-33.25-8.53-37.8-27.7,5-37.87,21.32-41.74,33.25,8.53,37.8,27.71" transform="translate(504.37 195.03)"/><path class="cls-6" d="M253.53,2570.19c4.11,17.33-1.59,33.52-12.75,36.17s-23.53-9.26-27.64-26.58,1.6-33.52,12.75-36.17,23.53,9.26,27.64,26.58" transform="translate(504.37 195.03)"/><path class="cls-6" d="M310.93,2603.84c1.69,16.62-3.06,30.7-10.6,31.46s-15-12.11-16.71-28.72,3.07-30.71,10.61-31.46,15,12.1,16.7,28.72" transform="translate(504.37 195.03)"/><path class="cls-6" d="M74.82,2487a30,30,0,1,1-36.22-22.64A30.21,30.21,0,0,1,74.82,2487" transform="translate(504.37 195.03)"/><path class="cls-6" d="M1.78,2400c3,12.46-7.9,25.72-24.26,29.6s-32-3.07-35-15.54,7.9-25.72,24.26-29.61,32,3.08,35,15.55" transform="translate(504.37 195.03)"/><path class="cls-6" d="M108.23,2424.32c-5.71,14.28-26.68,10.31-38.09,5.69s-29.29-16.33-23.58-30.61,26.68-10.31,38.09-5.69,29.3,16.33,23.58,30.61" transform="translate(504.37 195.03)"/><path class="cls-6" d="M107.89,2364.5c-2.76,6.89-17.44,7.44-32.8,1.23S49.51,2348.91,52.26,2342s17.43-7.44,32.8-1.24,25.58,16.83,22.83,23.72" transform="translate(504.37 195.03)"/><path class="cls-6" d="M211.54,2410.82c-4.2,6.83-20.39,4.46-36.16-5.31s-25.16-23.23-21-30.07,20.37-4.47,36.15,5.3,25.16,23.24,21,30.08" transform="translate(504.37 195.03)"/><path class="cls-6" d="M184,2359.76c-1,2-13.65-2.62-28.21-10.24s-25.52-15.4-24.5-17.37,13.64,2.62,28.19,10.24,25.54,15.4,24.52,17.37" transform="translate(504.37 195.03)"/><path class="cls-6" d="M8.51,2347.76c.77,7-11.91,14.17-28.34,16s-30.38-2.42-31.16-9.44,11.91-14.17,28.34-16,30.38,2.43,31.16,9.44" transform="translate(504.37 195.03)"/><path class="cls-6" d="M93.94,2320.14c-.28,1.75-13.14,1-28.71-1.58s-27.95-6.16-27.66-7.9,13.14-1,28.71,1.58,28,6.16,27.66,7.9" transform="translate(504.37 195.03)"/><path class="cls-6" d="M-86.62,2333.15c1.69,3.58-10.36,8.08-24.48,14.76s-25,13-26.65,9.43,8.4-11.88,22.52-18.56,26.93-9.2,28.61-5.63" transform="translate(504.37 195.03)"/><path class="cls-6" d="M3.27,2315.3c.4,3.54-12.14,7.83-28,9.58s-29,.29-29.42-3.26,12.14-7.83,28-9.58,29-.29,29.42,3.26" transform="translate(504.37 195.03)"/><path class="cls-6" d="M183.25,2470.87c9.33,16.63,6.81,35.81-5.63,42.83s-30.1-.77-39.44-17.41-6.81-35.81,5.63-42.83,30.1.77,39.44,17.41" transform="translate(504.37 195.03)"/><path class="cls-6" d="M265.5,2490.63c9.34,16.63,11,33.45,3.71,37.56s-20.75-6.05-30.09-22.68-11-33.46-3.71-37.56,20.76,6,30.09,22.68" transform="translate(504.37 195.03)"/><path class="cls-6" d="M256.59,2421.34c9.57,11.66,16,22.23,14.29,23.62s-10.8-6.93-20.38-18.58-16-22.23-14.29-23.62,10.8,6.93,20.38,18.58" transform="translate(504.37 195.03)"/><path class="cls-6" d="M312.64,2528.68c3.52,14.86,4.78,27.29,2.8,27.76s-6.44-11.2-10-26.06-4.79-27.29-2.81-27.76,6.44,11.2,10,26.06" transform="translate(504.37 195.03)"/><path class="cls-6" d="M326.86,2656.64c-2.42,15.07-8.28,27-10.22,26.71s3.05-12.23,5.48-27.3,1.38-27.59,3.31-27.27,3.86,12.79,1.43,27.86" transform="translate(504.37 195.03)"/><path class="cls-6" d="M-242,2458s29.66-60.68,82.77-91c0,0,2,.22-6.09,7.83-14.14,13.37-50.05,40.67-76.68,83.19" transform="translate(504.37 195.03)"/><path class="cls-6" d="M279.6,2766.38s22.63-21.43,31-53.09c0,0-.89-1.38-2.64,4.14-6.45,20.33-14.84,31.76-28.33,49" transform="translate(504.37 195.03)"/><path class="cls-6" d="M322.45,2656.6l-12.92-125.67-.54.06.48-.25L254,2425.07l-1.05-2v1.1L156.37,2346l1.26-.11-94.12-31.3-.12-.26-.38.16L-24.6,2316v-.17l-90.24,27.61,88.7,7.62-.38.15,2,0L-31,2406.63l0,.23.06.08,42.15,182.71.53-.13.51.17.1-.32,123.41-13.09.46.42.13-.43L233,2577l.5.66.12-.45L297.79,2606l.67,1.61,0-.17,22.94,49.78,1-.45-.07-.15Zm-24.5-53-42.48-101.64,52.93,29.35ZM233,2575.25,164.21,2484l89.48,17.14Zm-97.42-.5L44.89,2494l117.3-10.16Zm-55.9-223.1-100.94-1.46,84.07-34.43Zm.31,1.08-1.26,56.91-100.59-58.38Zm103.57,40.11L79.84,2409.92,81.1,2353ZM79.49,2411.46l82.13,71.3L44.54,2492.9Zm1-.55,104.42-17.19-22.28,88.49Zm83.11,71.86,22.25-88.37L253.25,2500Zm23.5-88.42,65.84,31.32.87,73.14Zm-.83-1.59.09-.37-.47.07-28.61-44.29,92.31,74.71Zm-2-.82-101.34-39.4,71.78-6.35Zm-107.1,18-107-3.78,6.43-54.6Zm1.31,1.13-35,81.49-72.76-85.3Zm229.19,118.56-52.76-29.26-.86-72.82Zm-226.76-178L64.15,2316l88.19,29.33Zm-106.55-34.37,1.21,32.84-84.76-7.28Zm1.08-.19,84.82-1.42-83.62,34.25Zm-4.89,91.66L43,2493.64l0,.18-31.22,93.71Zm42.14,179.51,31.22-93.71,90.72,80.78Zm123.93-13,26.53-90.81L232.21,2576Zm117.85-72.84,42.71,102.18-63.26-28.38Zm54.43,33,12.19,118.52-22.32-48.44Z" transform="translate(504.37 195.03)"/><path class="cls-6" d="M321.43,2658.55a1.35,1.35,0,0,1-1.22-.78l-22.68-49.22a1.37,1.37,0,0,1-.3-.44l-.46-1.12-62.71-28.13a1.7,1.7,0,0,1-.32.1,1.36,1.36,0,0,1-1.31-.51l-.1-.14-95.18-.71a1.31,1.31,0,0,1-.6.38,1.35,1.35,0,0,1-1.25-.29l0,0L13.16,2590.62a1.32,1.32,0,0,1-1.37.34l-.16-.05-.16,0a1.34,1.34,0,0,1-1.6-1l-42.1-182.53a1.42,1.42,0,0,1-.13-.72l0-.23,6.35-53.93h-.57a1.23,1.23,0,0,1-.75-.25l-87.66-7.52a1.32,1.32,0,0,1-1.21-1.19,1.33,1.33,0,0,1,.93-1.41L-25,2314.54a1.31,1.31,0,0,1,1,.1l86.71-1.44.15-.06a1.31,1.31,0,0,1,1.53.39l93.63,31.14a1.32,1.32,0,0,1,.9,1.41,1.27,1.27,0,0,1-.06.28l93.36,75.56a1.26,1.26,0,0,1,.34-.13,1.33,1.33,0,0,1,1.5.67l1,2,55.51,105.67a1,1,0,0,1,.12.32,1.19,1.19,0,0,1,.09.36l12.92,125.66a1.37,1.37,0,0,1-.06.57,1.8,1.8,0,0,1,0,.19,1.39,1.39,0,0,1-.7.75l-1,.45a1.23,1.23,0,0,1-.55.13m-21.29-53.28L319,2646.09l-10.27-99.86Zm-64.63-29.87,59.14,26.54-39.93-95.54ZM258.18,2505l39.14,93.67L307,2532Zm-213.65-8.08L14.61,2586.7l116.89-12.39Zm-71.46-83.14,39,168.89L41.55,2494Zm165.32,160.14,91.14.72-65.84-87.3ZM48.08,2495l86.86,77.34,25.43-87.07Zm119.27-9.08,65.13,86.36L252,2502.16Zm88.88,13.65,48.19,26.73-49-93.24Zm-91-17.86,85.24,16.35-64.08-100.37Zm25.49-84.18,61.7,96.62-.8-67.66ZM80,2413.66l-33.35,77.73,111.73-9.68Zm-106.28-4.95,69.41,81.36,33.37-77.73Zm109.8,3.05,78.35,68,21.26-84.42Zm104.1-19.84,52.44,24.94-77.13-62.41,23.66,36.62a1.29,1.29,0,0,1,.76.42,1.21,1.21,0,0,1,.27.43m-216,13,100.28,3.54-94.25-54.7Zm110.77-50-1.19,53.44,97.38-16Zm-99.14-2.25,94.23,54.7L78.67,2354Zm105.47.7,92.21,35.86L154,2347.58ZM-14.69,2349l92.3,1.33-15.42-32.81Zm81.36-30.73,15,32,64.12-5.67Zm-168.9,23.87,76.41,6.56L-26.9,2319Zm79.05-23.72,1.08,29.57,75.31-30.84Z" transform="translate(504.37 195.03)"/><path class="cls-6" d="M321.43,2658.55a1.35,1.35,0,0,1-1.22-.78l-22.68-49.22a1.37,1.37,0,0,1-.3-.44l-.46-1.12-62.71-28.13a1.7,1.7,0,0,1-.32.1,1.36,1.36,0,0,1-1.31-.51l-.1-.14-95.18-.71a1.31,1.31,0,0,1-.6.38,1.35,1.35,0,0,1-1.25-.29l0,0L13.16,2590.62a1.32,1.32,0,0,1-1.37.34l-.16-.05-.16,0a1.34,1.34,0,0,1-1.6-1l-42.1-182.53a1.42,1.42,0,0,1-.13-.72l0-.23,6.35-53.93h-.57a1.23,1.23,0,0,1-.75-.25l-87.66-7.52a1.32,1.32,0,0,1-1.21-1.19,1.33,1.33,0,0,1,.93-1.41L-25,2314.54a1.31,1.31,0,0,1,1,.1l86.71-1.44.15-.06a1.31,1.31,0,0,1,1.53.39l93.63,31.14a1.32,1.32,0,0,1,.9,1.41,1.27,1.27,0,0,1-.06.28l93.36,75.56a1.26,1.26,0,0,1,.34-.13,1.33,1.33,0,0,1,1.5.67l1,2,55.51,105.67a1,1,0,0,1,.12.32,1.19,1.19,0,0,1,.09.36l12.92,125.66a1.37,1.37,0,0,1-.06.57,1.8,1.8,0,0,1,0,.19,1.39,1.39,0,0,1-.7.75l-1,.45A1.23,1.23,0,0,1,321.43,2658.55Zm-21.29-53.28L319,2646.09l-10.27-99.86Zm-64.63-29.87,59.14,26.54-39.93-95.54ZM258.18,2505l39.14,93.67L307,2532Zm-213.65-8.08L14.61,2586.7l116.89-12.39Zm-71.46-83.14,39,168.89L41.55,2494Zm165.32,160.14,91.14.72-65.84-87.3ZM48.08,2495l86.86,77.34,25.43-87.07Zm119.27-9.08,65.13,86.36L252,2502.16Zm88.88,13.65,48.19,26.73-49-93.24Zm-91-17.86,85.24,16.35-64.08-100.37Zm25.49-84.18,61.7,96.62-.8-67.66ZM80,2413.66l-33.35,77.73,111.73-9.68Zm-106.28-4.95,69.41,81.36,33.37-77.73Zm109.8,3.05,78.35,68,21.26-84.42Zm104.1-19.84,52.44,24.94-77.13-62.41,23.66,36.62a1.29,1.29,0,0,1,.76.42A1.21,1.21,0,0,1,187.61,2391.92Zm-216,13,100.28,3.54-94.25-54.7Zm110.77-50-1.19,53.44,97.38-16Zm-99.14-2.25,94.23,54.7L78.67,2354Zm105.47.7,92.21,35.86L154,2347.58ZM-14.69,2349l92.3,1.33-15.42-32.81Zm81.36-30.73,15,32,64.12-5.67Zm-168.9,23.87,76.41,6.56L-26.9,2319Zm79.05-23.72,1.08,29.57,75.31-30.84Z" transform="translate(504.37 195.03)"/><path class="cls-6" d="M48.29,2581.8A35,35,0,0,1,22.43,2624a35.05,35.05,0,0,1-16.19-68.21,35,35,0,0,1,42.05,26" transform="translate(504.37 195.03)"/><path class="cls-6" d="M168.1,2569.05c4.55,19.17-5,37.86-21.32,41.73s-33.25-8.53-37.8-27.7,5-37.87,21.32-41.74,33.25,8.53,37.8,27.71" transform="translate(504.37 195.03)"/><path class="cls-6" d="M253.53,2570.19c4.11,17.33-1.59,33.52-12.75,36.17s-23.53-9.26-27.64-26.58,1.6-33.52,12.75-36.17,23.53,9.26,27.64,26.58" transform="translate(504.37 195.03)"/><path class="cls-6" d="M310.93,2603.84c1.69,16.62-3.06,30.7-10.6,31.46s-15-12.11-16.71-28.72,3.07-30.71,10.61-31.46,15,12.1,16.7,28.72" transform="translate(504.37 195.03)"/><path class="cls-6" d="M74.82,2487a30,30,0,1,1-36.22-22.64A30.21,30.21,0,0,1,74.82,2487" transform="translate(504.37 195.03)"/><path class="cls-6" d="M1.78,2400c3,12.46-7.9,25.72-24.26,29.6s-32-3.07-35-15.54,7.9-25.72,24.26-29.61,32,3.08,35,15.55" transform="translate(504.37 195.03)"/><path class="cls-6" d="M108.23,2424.32c-5.71,14.28-26.68,10.31-38.09,5.69s-29.29-16.33-23.58-30.61,26.68-10.31,38.09-5.69,29.3,16.33,23.58,30.61" transform="translate(504.37 195.03)"/><path class="cls-6" d="M107.89,2364.5c-2.76,6.89-17.44,7.44-32.8,1.23S49.51,2348.91,52.26,2342s17.43-7.44,32.8-1.24,25.58,16.83,22.83,23.72" transform="translate(504.37 195.03)"/><path class="cls-6" d="M211.54,2410.82c-4.2,6.83-20.39,4.46-36.16-5.31s-25.16-23.23-21-30.07,20.37-4.47,36.15,5.3,25.16,23.24,21,30.08" transform="translate(504.37 195.03)"/><path class="cls-6" d="M184,2359.76c-1,2-13.65-2.62-28.21-10.24s-25.52-15.4-24.5-17.37,13.64,2.62,28.19,10.24,25.54,15.4,24.52,17.37" transform="translate(504.37 195.03)"/><path class="cls-6" d="M8.51,2347.76c.77,7-11.91,14.17-28.34,16s-30.38-2.42-31.16-9.44,11.91-14.17,28.34-16,30.38,2.43,31.16,9.44" transform="translate(504.37 195.03)"/><path class="cls-6" d="M93.94,2320.14c-.28,1.75-13.14,1-28.71-1.58s-27.95-6.16-27.66-7.9,13.14-1,28.71,1.58,28,6.16,27.66,7.9" transform="translate(504.37 195.03)"/><path class="cls-6" d="M-86.62,2333.15c1.69,3.58-10.36,8.08-24.48,14.76s-25,13-26.65,9.43,8.4-11.88,22.52-18.56,26.93-9.2,28.61-5.63" transform="translate(504.37 195.03)"/><path class="cls-6" d="M3.27,2315.3c.4,3.54-12.14,7.83-28,9.58s-29,.29-29.42-3.26,12.14-7.83,28-9.58,29-.29,29.42,3.26" transform="translate(504.37 195.03)"/><path class="cls-6" d="M183.25,2470.87c9.33,16.63,6.81,35.81-5.63,42.83s-30.1-.77-39.44-17.41-6.81-35.81,5.63-42.83,30.1.77,39.44,17.41" transform="translate(504.37 195.03)"/><path class="cls-6" d="M265.5,2490.63c9.34,16.63,11,33.45,3.71,37.56s-20.75-6.05-30.09-22.68-11-33.46-3.71-37.56,20.76,6,30.09,22.68" transform="translate(504.37 195.03)"/><path class="cls-6" d="M256.59,2421.34c9.57,11.66,16,22.23,14.29,23.62s-10.8-6.93-20.38-18.58-16-22.23-14.29-23.62,10.8,6.93,20.38,18.58" transform="translate(504.37 195.03)"/><path class="cls-6" d="M312.64,2528.68c3.52,14.86,4.78,27.29,2.8,27.76s-6.44-11.2-10-26.06-4.79-27.29-2.81-27.76,6.44,11.2,10,26.06" transform="translate(504.37 195.03)"/><path class="cls-6" d="M326.86,2656.64c-2.42,15.07-8.28,27-10.22,26.71s3.05-12.23,5.48-27.3,1.38-27.59,3.31-27.27,3.86,12.79,1.43,27.86" transform="translate(504.37 195.03)"/><path class="cls-6" d="M-242,2458s29.66-60.68,82.77-91c0,0,2,.22-6.09,7.83-14.14,13.37-50.05,40.67-76.68,83.19" transform="translate(504.37 195.03)"/><path class="cls-6" d="M279.6,2766.38s22.63-21.43,31-53.09c0,0-.89-1.38-2.64,4.14-6.45,20.33-14.84,31.76-28.33,49" transform="translate(504.37 195.03)"/></g></g></g></g></svg>